<?xml version="1.0" standalone="no"?>
<!DOCTYPE svg PUBLIC "-//W3C//DTD SVG 1.1//EN" "http://www.w3.org/Graphics/SVG/1.1/DTD/svg11.dtd" >
<svg xmlns="http://www.w3.org/2000/svg" xmlns:xlink="http://www.w3.org/1999/xlink" version="1.1">
<metadata></metadata>
<defs>
<font id="biro_script_reducedregular" horiz-adv-x="1024" >
<font-face units-per-em="2048" ascent="1638" descent="-410" />
<missing-glyph horiz-adv-x="759" />
<glyph horiz-adv-x="0" />
<glyph horiz-adv-x="682" />
<glyph unicode=" "  horiz-adv-x="759" />
<glyph unicode="&#x09;" horiz-adv-x="759" />
<glyph unicode="&#xa0;" horiz-adv-x="759" />
<glyph unicode="A" horiz-adv-x="983" d="M946 977q-8 -5 -14 -50t-6 -69q0 -14 -1.5 -28t-5 -30t-6 -26.5t-7.5 -29.5t-7 -27q-4 -18 -12.5 -60t-16.5 -74t-18 -57q-42 -123 -59 -270q-2 -11 3 -25.5t-5 -27.5q-20 -36 -13 -99q2 -11 15 -26.5t6 -30.5q-2 -5 -3.5 -10t-2.5 -7.5t-4.5 -5t-10.5 -4.5 q-10 -4 -30 -8q-74 -9 -74 117q0 5 0.5 13t0.5 10.5t-1 8t-4 5t-8 2t-13 -1.5q-51 -8 -74 -10q-30 0 -32 3l-11 11q-13 0 -18.5 -1t-17.5 3t-17.5 6t-17.5 7.5t-17 7.5q-42 16 -77 43q-4 4 -11 11.5t-11 11t-9 5t-9.5 -4t-9.5 -17.5q0 -2 -26.5 -33t-30.5 -31 q-4 -7 -7 -25.5t-13 -29.5q-22 -22 -39 -55q-4 -6 -13.5 -14t-12.5 -15t-3 -21q0 -2 -12 -2q-4 0 -9 -15.5t-20 -16.5q-15 -15 -8 -45q-5 -17 -27 -44.5t-26 -41.5q-2 -7 -3.5 -16t-3 -11t-6.5 -5.5t-16 -6.5q0 8 3.5 14.5t4.5 11.5q-43 30 -43 103q0 41 19 73q25 33 41 47 q13 4 15.5 8t0 9.5t0.5 15.5q25 24 70.5 99.5t70.5 97.5q18 18 40 61.5t30 55.5q8 14 49.5 63.5t48.5 69.5l25 16q-7 9 -4 25q6 4 12 10.5t9 11t9 16t7 13.5q7 12 43.5 54t44.5 46q7 4 33 34.5t32 41.5q7 12 15 31t16.5 34t21.5 29q14 12 34.5 38.5t33.5 39.5q4 3 24.5 17.5 t28.5 25.5q3 5 7 19.5t8 21.5q28 36 53 49q37 21 61 13t31 -34.5t10.5 -58t-0.5 -59.5zM780 547q28 32 38.5 114.5t17.5 98.5q13 24 13 29t-13 26q-4 11 -3.5 17t3 18.5t2.5 19.5q0 34 -8 54q-3 9 -6 -2q0 -2 -1 -4q-2 -9 -17 -13t-18 -8q-2 -3 -2 -13t-2 -12t-7.5 -7 t-7.5 -6.5t-6 -5.5t-5.5 -6l-4.5 -6t-5 -8.5t-5 -9.5q-4 -7 -24 -31t-21 -28q-3 -13 -34.5 -53t-47.5 -56q-25 -25 -34 -55l-29 -16l-8 -25q-4 -5 -18.5 -17t-20.5 -22q-32 -54 -35 -57q-4 -6 -9 -9.5t-7.5 -7.5t-3.5 -14q-2 -15 -21 -36.5t-22 -35.5q0 -4 12 -4q0 16 8 19 q14 -5 5.5 -23.5t2.5 -29.5q20 -16 92 -39q34 -11 115 -11q8 1 18.5 0t16.5 -1t11.5 3.5t8.5 12.5q2 8 7 19.5t7.5 18.5t1.5 17.5t-7 22.5q11 16 18 41q21 61 25 96q3 27 30 45zM797 694q2 -17 -10 -45t-27 -24q1 23 13.5 59t19.5 41q1 -2 2 -14.5t2 -16.5zM-59 -143 q10 -3 19 -29.5t8 -52t-15 -25.5q-12 0 -15.5 48t3.5 59z" />
<glyph unicode="B" horiz-adv-x="956" d="M866 1176q0 -21 -4.5 -62t-5.5 -61q-1 -3 -7.5 -6.5t-8.5 -6.5q0 -91 -70 -161q-23 -24 -51 -64t-43 -70q-25 -58 -86 -108q-3 -3 -41.5 -44t-52.5 -48q17 -13 76 -48t97.5 -69t55.5 -78q5 -13 19 -33t21.5 -42t4.5 -56q-1 -4 -7.5 -15t-9.5 -17.5t1 -10.5q5 -2 6 -8.5 t-0.5 -13t-4.5 -15t-3 -10.5q-5 -19 -27 -43.5t-29 -40.5q-4 -7 -9.5 -14.5t-13.5 -15t-13.5 -12.5t-16.5 -12.5t-15 -10.5t-15.5 -11t-12.5 -8q-150 -93 -211 -108q-8 -2 -25 -8t-30 -9t-23 0q0 14 33.5 27.5t70.5 29.5t44 35q-33 0 -99 -37q-8 -4 -24 -12.5t-25.5 -13 t-26 -12t-26 -10t-26.5 -7t-26.5 -3t-25.5 2.5q-33 14 -45 21q-15 6 -27.5 24.5t-17.5 32t-14 39.5q3 14 9 16.5t15 0t13 -0.5q8 -19 34 -26q21 -5 44.5 -6t49 2.5t45 7.5t48 10.5t43.5 9.5q64 15 92 45q16 17 49 33.5t39 20.5q24 15 51.5 38.5t30.5 38.5q3 12 11.5 34 t13.5 40t4 35q-1 12 -6.5 24t-10.5 19.5t-14.5 21t-13.5 19.5q-16 27 -19.5 32t-15 12t-27.5 21q-57 42 -88 54t-67 34q-17 11 -35 39t2 41q1 9 2.5 14t5 8.5t5.5 5t9.5 5t12.5 6.5q4 2 33.5 26t47.5 30q10 4 12 5t1 6.5t0 10.5q0 6 6 9.5t13 4.5t11.5 4.5t2.5 8.5 q-17 0 -17 8q34 21 72 83.5t57 80.5q66 66 96 116q13 19 5 25q-6 6 -5 9.5t5.5 11t5.5 10.5q10 44 6 114q-3 49 -21 89q-13 26 -59 51t-90.5 32.5t-73.5 -8.5q-18 -16 -73 -27t-78 -40q-2 5 2.5 9.5t5.5 6.5q-5 4 -10.5 4.5t-9 -1t-10.5 -4t-11 -3.5q-3 13 -2 20.5t14 14.5 q11 11 31 32t34 32.5t35 21.5q13 6 41.5 14.5t62.5 16.5t59.5 6.5t25.5 -17.5q70 3 117 -22q40 -22 65 -74q48 -75 51 -149zM289 1251q5 7 10.5 5.5t7.5 -9.5q-2 -9 -8.5 -14t-13.5 -2q0 4 4 20zM365 784q22 -9 28 -41q-14 -4 -32.5 8.5t-24.5 28.5q14 7 29 4zM397 705 q-20 -22 -24 -66h-13q8 -58 -36 -121q-13 -12 -37 -62.5t-29 -58.5q-53 -85 -88 -168q-18 6 -12 -12q-12 -9 -31 -61q-28 -64 -37 -109q-4 -21 -16.5 -32t-26.5 -11q-16 0 -29.5 11.5t-17.5 31.5q-4 19 -0.5 35.5t15.5 43.5t14 34q0 39 8 49q18 24 38.5 73.5t33.5 71.5 l20 13q4 35 14 47q20 29 39.5 79.5t32.5 73.5q3 6 18 23t26 32t9 23q-6 27 11 40.5t46 20.5t37 15q35 27 35 -16z" />
<glyph unicode="C" horiz-adv-x="835" d="M698 1155q-47 0 -100 -31q-7 -5 -25.5 -30t-31.5 -27q-4 -1 -15 -2.5t-13.5 -2t-9.5 -3t-9.5 -6t-7.5 -10t-9 -15.5q-4 -7 -10 -16.5t-7 -12.5t-3.5 -13t2.5 -19q-12 0 -27 6q-4 -6 -9.5 -11t-15.5 -11t-12 -7q-7 -6 -7.5 -20t-8.5 -21l-7 -7l-6.5 -6.5t-5.5 -5t-6 -4.5 t-6 -2.5t-7 -1.5h-7.5t-9.5 1q0 -36 -29 -78q-12 -17 -66 -80q-17 -21 -39.5 -78.5t-27.5 -85.5q-2 -8 -13 -20.5t-8 -22.5q3 -9 -3 -49.5t-14 -85t-9 -51.5q-1 -27 -2.5 -39.5t3.5 -32.5t8 -29t11 -28.5t12 -32.5q19 -60 78.5 -91.5t130.5 -31.5q63 0 111 25q11 6 37 4.5 t35 11.5q18 18 73 14q13 -3 22.5 -0.5t12.5 13.5q4 3 10.5 1t17 -9t11.5 -7q0 19 36.5 31t59.5 10q0 14 13.5 19.5t27 1t13.5 -16.5q-21 -1 -30.5 -3t-17.5 -11t-10 -27q-7 1 -17 7.5t-13 7.5q-2 -19 -7.5 -26.5t-21.5 -6.5q-13 2 -18.5 -2t-10.5 -12.5t-12 -12.5 q-4 -4 -17 -4.5t-18 -3.5q-9 -9 -31 -20q0 -10 -3.5 -14.5t-14.5 -8t-16 -6.5q-16 -10 -35.5 -17t-44.5 -13t-39 -11q-89 -27 -166 -16q-2 0 -8 1q-131 16 -131 54l-43 53q-14 -4 -29 8t-32 35t-21 27q-19 19 -19 63q0 6 0.5 21t0.5 23t-1.5 18.5t-5.5 17.5q-10 27 -10 70 q0 52 10.5 116.5t22.5 94.5q25 89 41 114q12 13 18.5 41.5t9.5 36.5q28 60 81.5 134.5t96.5 113.5q15 13 47.5 39t58 48.5t44.5 43.5q18 20 78.5 51.5t75.5 18.5q-1 -4 -5.5 -8t-8 -6.5t-1.5 -4.5q5 -4 23 -4q4 2 13 25q4 3 5 -6q2 1 4.5 1.5t10 3t13.5 4t11.5 3t7.5 0.5 q3 0 11 -0.5t12 -1t10.5 -1.5t10.5 -2.5t8 -4.5t6.5 -7t3.5 -10l-19 8q-2 -1 0 -4t4.5 -6t-0.5 -6zM770 1147q4 -4 27 1.5t39 -5.5q14 -10 19 -19.5t8 -26.5t7 -28q9 3 15.5 3.5t9 -1.5t3.5 -5.5t0.5 -9t-2 -10.5t-3 -12.5t-2.5 -13.5v-31q-8 -1 -19.5 -8.5t-19.5 -7.5 q0 -11 -12 -22.5t-15 -18.5q-1 -3 2 -1q2 0 9 4q23 14 30 11q0 -17 -25 -28t-40 -9q0 80 4 103q-7 4 -12 12.5t-7.5 10t-15.5 -0.5q-29 13 -47 31q-7 5 -10 6t-3 0t-2.5 -3t-7.5 -3q-11 -1 -16.5 7t-15.5 3q-41 -25 -105 -22q-2 -2 -2 -4t1 -5.5t1 -5.5q0 -11 -8 -4 q-11 10 -8 27q29 6 42.5 9.5t42.5 17.5t54 36q2 2 13 12t20 16.5t20.5 12t19.5 1t11 -18.5zM770 877q4 -5 4.5 -8t-2.5 -4.5t-9 -1.5t-15 1q0 5 6.5 11t15.5 2zM100 37q18 -15 23 -31q-23 0 -23 31z" />
<glyph unicode="D" horiz-adv-x="1091" d="M817 1200q51 -57 90 -127q33 -57 79 -156.5t38 -123.5q-7 -19 7 -61.5t13 -59.5q-5 -106 -49 -221q-10 -9 -14 -11q-7 -3 -8 -16t-4 -18q-12 -17 -33.5 -51.5t-35.5 -55t-34.5 -47t-40.5 -45.5q-8 -8 -40.5 -41t-47 -47t-41 -38.5t-48 -40.5t-42.5 -28q-23 0 -29 -3 t-16 -21q-39 -4 -97 -50.5t-93 -52.5q-23 -5 -27 -12q-2 -3 -4 -8q-4 -7 -56.5 -22t-66.5 -15q-14 -2 -55 -27q-17 -8 -34 -8t-38 3t-37 1q0 14 12.5 20t29.5 10.5t24 14.5q5 4 14.5 -2t13.5 -2q5 10 18.5 14.5t24.5 6t11 4.5q9 12 3.5 15.5t-18.5 0.5q-2 0 -7 -1 q-25 -4 -34 -16l-2 -3q-10 7 -57 -9q0 8 22 20.5t33 12.5q25 0 52 13.5t58.5 36t45.5 30.5l37 8q14 21 60 42t59 34q21 25 71 53.5t68 46.5q45 53 86 60q1 -4 -1 -11t-3 -11t4 -7q8 0 10 8t0 22l-2 15q3 11 23 24.5t24 18.5q38 46 78 105q5 7 34.5 43.5t41 53t26 47 t17.5 56.5q1 10 1 28.5t1 34t4 30.5q6 38 -2.5 86t-26.5 81l-43 101q-27 64 -72.5 145t-76.5 101q-14 7 -25.5 16.5t-25.5 23.5t-23 21q-3 2 -9.5 7t-9.5 7.5t-8.5 4.5t-11.5 2q-5 3 -6 9t-10 5q-8 -1 -25.5 2.5t-27.5 4.5t-17 -3l4 -8q0 -4 -8 -5.5t-20 -1.5t-17 -1 q0 6 2 8.5t6 4t6 5.5q2 10 0.5 12t-8.5 6t-10 9q3 2 7 6t6 5t5 1.5t5 -2.5t4 -10q15 -31 22 18v2l-20 -4q0 12 6 20t16 10.5t21.5 3.5t22.5 0.5t20 0.5q32 4 113 -57.5t118 -100.5zM446 1274q18 -6 -3 -32q-21 -27 -40 -25q-9 2 -12 10q2 2 9 2q3 1 3 2q-3 3 2.5 8.5 t12.5 11.5t6 9q0 7 -4 2.5t-8 -0.5q0 6 9 7.5t15 -3.5l-2 -11q1 -1 4 0q6 2 6.5 10t1.5 9zM354 1157q3 2 8 1t5 -5q0 -1 -1.5 -6t-3.5 -6q-4 -2 -5 0t-2 8t-1 8zM475 934q-39 0 -39 45q0 35 27 55q9 7 16.5 10t16 0.5t12.5 -4.5t14.5 -9.5t14.5 -10.5q14 -20 6.5 -33 t-18 -35.5t-3.5 -40.5q5 -9 -6 -29.5t-20 -29.5q-4 -39 -13 -57q-12 -26 -40 -100t-48 -113q-6 -11 -47 -69t-47 -95q-5 -11 -20.5 -45t-18.5 -35q-19 -13 -44 -65.5t-34 -63.5q-4 -4 -12.5 -13t-12.5 -14.5t-10 -14t-8.5 -17t-3.5 -17.5q-2 -18 -19.5 -40.5t-21.5 -35.5 q-1 -5 -4 -16.5t-4.5 -17.5t-5.5 -14t-10 -13.5t-15 -9.5q-30 -12 -57 13t-14 58q1 1 6.5 6t7.5 7.5t4.5 7.5t1.5 10q-4 27 6 37q6 11 24.5 39t26.5 45q6 10 19.5 46.5t28.5 51.5q23 23 41 71.5t34 70.5l50 69q45 80 77 150q5 12 21 20q5 3 6.5 7t0.5 12t-1 10q5 37 28.5 79 t53.5 56q45 18 55 31q8 11 8.5 18.5t-4.5 17t-6 15.5zM41 -133q27 -5 33 -8q-5 -11 -34 -17q-17 -4 -17 3q0 2 2 5q3 4 8.5 7.5t7.5 9.5z" />
<glyph unicode="E" d="M1077 961h-71q-7 1 -19 8t-18 8q-12 -6 -68.5 -1t-69.5 5q-45 0 -120.5 -14.5t-102.5 -16.5q-2 0 -15.5 -2t-21.5 -2.5t-19 0t-16.5 4.5t-5.5 11q-5 3 -12.5 -3t-11.5 -2q0 8 14.5 25t14.5 33q-6 6 -53 4q-26 -1 -26 5q1 3 5 7q29 29 61 33q17 2 56.5 1.5t56.5 2.5 q44 8 137 8q104 0 143 -10q32 -8 43 -8q16 0 19 -1.5t0.5 -5.5t7.5 -10q20 4 31 4q4 -1 4.5 -9t3.5 -9q24 4 38 -2.5t-1 -26.5q23 -2 35 -19q11 -14 -11 -22v3.5t0.5 5t0 5t-1 4.5t-2.5 2.5t-5 0.5q-3 -1 -2.5 -3t2 -6.5t0.5 -6.5zM461 879l16 -15q4 -37 -20 -45 q-3 3 -13 9.5t-16 13.5q-20 3 -25 -8l17 -15q-4 -11 -40 -6q-37 6 -36 23q0 8 12 18q3 2 7.5 4t7.5 3t5 4t1 7q0 11 13 16q1 0 1.5 0.5t1.5 0.5q8 5 17.5 8t20.5 4.5t19.5 -4t10.5 -18.5zM299 547q87 -7 152 8q31 8 167 23q15 2 18.5 9t16.5 11q11 3 20.5 0t18.5 -1t13 13 q53 8 61 0q-2 -8 0 -10.5t12 -3.5q0 -8 -3 -11.5t-8.5 -6t-8.5 -7.5q-6 -7 -37 -28q-56 -33 -125 -49l-25 -5q6 -21 -12 -18q-10 -2 -25.5 -7.5t-22 -7t-26.5 0.5q-6 -3 -14.5 -11t-17.5 -10q-41 -8 -103 -4l-80 12q0 16 -17 14.5t-22 -14.5q-11 -38 -28 -49 q-23 -14 -50.5 -98t-31.5 -90q-11 -23 -7 -49.5t19 -48.5q53 -56 158 -56q121 0 272 60q0 -16 7 -15t1 19q-1 3 2.5 4.5t9.5 1.5t13.5 -0.5t14.5 -0.5t12 1q13 1 29 15t20 16q16 0 16 4l-1 2q5 3 9 4q8 8 29 8q0 -6 -3.5 -12.5t-4.5 -9.5q8 0 14 18q9 17 13 18t22 -6 q0 3 -5.5 8.5t-6.5 8.5q34 19 41 16q0 -14 -0.5 -17.5t-7 -6.5t-9.5 -5q8 -4 13 -12q-1 -6 -16.5 -7.5t-16.5 -2.5q1 -2 5 -5t4.5 -3.5t-1.5 -3.5q-21 -14 -25 -5q4 20 4 21q-3 1 -8 -2q-6 -3 -11.5 -21.5t-8.5 -23.5q-5 -9 -16.5 -12.5t-20 -7t-8.5 -15.5q-7 -7 -25 -16 l-12 1.5t-8.5 -2.5t-6.5 -5.5l-6 -7.5t-8 -9l-55 -27q-61 -65 -232 -75q-3 0 -15 -0.5t-22.5 -0.5t-22.5 0.5t-20 2t-10 4.5q-2 8 -14.5 3t-17.5 -3q-10 15 -22.5 14.5t-29.5 3.5q-72 35 -110 76q-7 8 -10 20.5t-11 20.5q-3 8 2 27.5t-2 25.5q-14 18 -9 46.5t17 52t23 50.5 t10 42q20 71 60 143q21 30 63 120.5t72 123.5q35 39 61 55q-11 20 13.5 33t37.5 0l-6 -8l56 -21q-3 -3 -8 -9t-6.5 -7t-6.5 -1t-12 3q-7 4 -12 0t0 -10q16 12 16 -14q-1 -22 -8 -36q-3 -7 -15 -21t-14.5 -21.5t2.5 -26.5q-26 -1 -41.5 -34t-15.5 -62q6 -3 8.5 0t-0.5 12z M436 770v-12q-8 0 -16 8q7 7 16 4zM791 631q11 0 13 -1.5t-2 -7.5t-5 -8q-8 0 -10.5 6t4.5 11z" />
<glyph unicode="F" horiz-adv-x="913" d="M1100 1194q17 -45 -6 -55q-32 -13 -66 -13q-30 0 -63 13q-11 2 -15 0t-25 -5.5t-48 -3.5q-9 0 -38 -3q-77 -8 -78 5l3 7q3 0 19 -2t24 -2.5t19.5 1t17.5 5.5q0 10 -72 10q-104 0 -145 -15q-12 -4 -6 -8q10 0 106 11q9 -8 -16 -16q-44 -13 -101 -11q-13 1 -30.5 -5.5 t-28.5 -6.5q-58 0 -66 1q-23 6 -14 19q15 18 10 23t-26 2q-3 1 -2 5t3 8t-1 7q-5 0 -11.5 -5.5t-10 -8t-7.5 1.5q0 31 53 25q-2 12 4.5 16t19.5 4.5t19 3.5q27 9 126 23.5t128 13.5q20 -2 65.5 2.5t63.5 1.5q9 -18 27 -12q37 5 86 -8q16 -4 47.5 -16t34.5 -13zM877 752 q3 -1 20 -3.5t23 -11.5q7 -9 0 -17t-25 -17l-18 -9v13q-12 -2 -37 -24t-47 -15q-20 6 -61.5 -10.5t-41.5 -34.5q-7 -4 -16 3.5t-17 4.5q0 -2 3.5 -6t4.5 -6t-3 -5q-19 0 -67.5 -16.5t-76.5 -7.5q-3 1 -8 -5t-23 -13.5t-49 -10.5q-59 -6 -116 -6q-3 0 -19.5 0.5t-22.5 0 t-18 -2t-20 -5.5t-15 -11q-11 -11 -10.5 -19.5t-3.5 -21.5q-7 -26 -32 -84.5t-25 -59.5q-45 -110 -64 -149q-4 -9 -7.5 -31t-8.5 -33q-9 -4 -13 -23t-6.5 -44.5t-5.5 -34.5q-8 -24 -33.5 -35t-46.5 6q-9 63 -8 80q1 5 3.5 12t2 10.5t-5.5 8.5q-13 7 2 22l64 168 q8 21 43.5 125t58.5 152q1 5 14.5 23.5t10.5 27.5q-6 15 4 24.5t12 18.5q4 28 34.5 112t49.5 126q7 12 29.5 81.5t47.5 103.5t54 7q2 -3 7 -7.5t7 -7.5t4 -7t1.5 -8.5t-3.5 -10.5q-10 -17 -6 -45q1 -19 -8 -43.5t-10 -34.5q0 -2 0.5 -9.5t0 -10t-1.5 -7t-4.5 -6.5t-8.5 -4 q-5 -7 -5.5 -22t-1.5 -19q-4 -31 -30.5 -92.5t-32.5 -93.5q74 -4 104 -4q31 0 72 6q12 2 43.5 10.5t48.5 10.5q12 1 66 12t71 8q25 -10 37 -6q5 16 25 16q5 1 17.5 -0.5t23 -1t16.5 5.5q8 -1 12 -7t9 -5l16 12q7 -20 10 -20q2 0 6 22q2 10 5 11z" />
<glyph unicode="G" horiz-adv-x="1126" d="M1026 1057q13 -2 14.5 -12.5t-3.5 -22.5t-9 -24.5t-2 -16.5q6 -2 12 -8q5 -5 -6 -8q-16 -5 -35 8q-11 13 -19.5 26.5t-16 19.5t-29.5 15q-7 3 -10 4t-3.5 0l-1 -2t-2.5 -3t-6 -3q-9 -3 -37.5 16t-40.5 31q-4 5 -5 13t-11 14q-26 11 24 29l11 4q20 2 74 -7 q100 -24 102 -73zM799 1073q-1 -3 -1 -8.5t-0.5 -9.5t-2.5 -6q-3 2 -13 13q-12 11 -12 7q7 -32 -51 -53q-2 -1 -17 -6q-42 -14 -73 -34.5t-61 -45.5t-56 -39q-5 -3 -9 -4.5t-6 -1t-4 -0.5t-2.5 -3.5t-1.5 -9.5q0 -3 -15 -16t-32 -27.5t-20 -19.5q-18 -25 -59.5 -64.5 t-63.5 -52.5q-16 -15 -31 -48t-18 -38q-21 -12 -56 -61.5t-38 -71.5q-4 -24 -15 -55t-18 -50t-10 -51.5t8 -58.5q26 -109 47 -119q22 -9 29 -18q2 -3 5.5 -8t5 -6.5t4 -5t4 -4.5t4 -3t4.5 -2.5t5.5 -1.5l7 -2t9.5 -2q20 -6 42 -6t40 2.5t42.5 9.5t39.5 12.5t40.5 16 t36.5 14.5q15 7 46 6t45 9q9 5 40 0q12 -1 16.5 1.5t4 5.5t2 6.5t10.5 4.5q5 1 15.5 1.5t15.5 3.5t8 11q14 33 27 -13q3 -8 4 -15q-5 -5 -23 -1.5t-30 -9.5q-1 -2 0 -3t4 -2.5t4 -2.5q0 -8 -12 -13t-17 -11q-11 0 -17 -2.5t-17.5 -12t-12.5 -10.5q-12 -9 -50 -21.5 t-52 -31.5q-14 -4 -38 -12t-44 -13.5t-37 -9.5q-11 -2 -13.5 -10t-21.5 -8q-40 -12 -84 -9q-72 6 -135 50q-13 9 -24.5 21t-20.5 23t-17.5 29.5t-14 29t-12 34t-9.5 32t-8 35t-6 31.5t-6 32.5t-5 28.5q-7 47 17 124.5t53 127.5q22 37 66 91t61 81q16 30 64 73.5t61 60.5 q34 40 84 77q30 24 38 25q11 -8 11 8q1 7 5.5 11t12 6.5t10.5 5.5q3 7 8 11.5t9 6.5t13.5 4.5t12.5 3.5q14 4 34.5 22t29.5 23q11 6 26 11t26.5 7t29 5t24.5 4q16 0 17 1t5 -4t11 -9q3 2 14 11t18.5 13.5t10.5 1.5q9 -9 -10 -17q-2 -2 -2 -3q19 -3 41 -18q16 -11 -4 -11z M745 -78q-4 47 37.5 144.5t44.5 144.5q0 26 -4 76q-2 36 -51 47q-13 2 -26 0t-28.5 1t-25.5 13q-2 -1 -18 -6.5t-27 -5.5q-7 21 -8 42.5t8 33.5q12 0 23.5 10t25.5 10q8 5 19 -2q4 -4 10.5 -3t9.5 2.5t8.5 5.5t8.5 5q17 2 26.5 3t24.5 -5t23 -10t22.5 -12.5t21.5 -12.5 q29 -14 42 -37.5t20 -60.5q6 -40 -0.5 -81t-20.5 -88t-18 -75q-2 -15 -17.5 -32.5t-19.5 -26.5q-7 -14 -14.5 -48.5t-18.5 -51.5q-15 -22 -37 -25q-12 8 -17.5 22t-23.5 23zM725 197q22 3 23.5 -2.5t-7.5 -16.5q-10 -17 -19 -3q-8 15 0 21q2 1 3 1z" />
<glyph unicode="H" horiz-adv-x="1118" d="M1137 1221q12 -1 15.5 -5.5t2.5 -11.5t2 -16q-21 0 -27 20q-3 13 7 13zM1116 1149q6 0 21 5t20 3q0 -13 -10 -35t-12 -32q-9 -53 -15 -72l-37 -57v-27q-4 -8 -15.5 -24.5t-17.5 -30t-3 -25.5q0 -11 -9 -22t-12 -17l-35 -82q-7 -14 -21 -39t-22 -40.5t-15 -39.5t-7 -47 q-13 -5 -28.5 -31t-31.5 -60.5t-20 -41.5q-23 -42 -58 -118.5t-49 -104.5q-31 -52 -39 -76q-3 -8 -9.5 -29.5t-11 -33.5t-12 -29t-18.5 -28.5t-24 -18.5q-16 -14 -35 4t-17 35q0 42 21 100q11 29 43 92q2 16 6.5 32.5t12 38t10.5 32.5q7 25 43 81.5t39 96.5q-4 3 -22.5 -1.5 t-40.5 -10.5t-28 -7q-13 -1 -37 -1t-44.5 -1t-38.5 -4q-3 0 -13 -1.5t-13.5 -2t-12 -1t-13.5 -0.5t-12.5 0.5t-14 2.5t-12.5 4q-33 11 -36 11q-12 1 -12.5 -5t-8.5 -8q-11 -2 -59 14.5t-58 6.5q-9 -9 -18.5 -24.5t-14.5 -25t-14.5 -31.5t-11.5 -26q-9 -18 -32 -69.5 t-38 -79.5q-9 -17 -18.5 -47.5t-13.5 -40.5q-3 -7 -12 -29t-14.5 -37.5t-8.5 -30.5q-3 -31 2 -55q9 -1 39 -16q0 -9 -2 -12t-5 -2.5t-7 -3.5t-7 -15q-43 -10 -47 -10q-40 -1 -59 34.5t-17 79.5q0 16 9.5 45t11.5 42q3 37 37 101.5t37 80.5l32 86q4 8 14.5 23.5t15.5 27 t7 27.5q2 7 11.5 9t9.5 7q0 9 5.5 11.5t6.5 6.5q-3 26 6 43q5 9 15.5 35t21.5 48t23 38q13 13 37.5 67t44.5 101t24 49q12 4 19.5 18.5t13 37t8.5 28.5q20 43 68 31q18 -4 30 11.5t23 17.5q10 2 0 -24q-4 -9 -14 -29q-7 -15 -9 -19q-22 -53 -22 -86l-6 -6l-5.5 -5.5 l-4.5 -4.5t-3.5 -5t-2.5 -5t-2.5 -6t-1.5 -6.5t-1 -8.5q-18 -35 -20 -43q-5 -20 -15.5 -40.5t-25 -44t-21.5 -36.5q-16 -29 -22 -55q1 -5 -0.5 -9.5t2.5 -7.5t5.5 -5t7.5 -3.5t8.5 -2.5t9.5 -1h9.5h8.5h8q10 -1 13.5 0t11.5 -2t10.5 -3.5t11 -4.5t12.5 -6q9 -4 22.5 -5.5 t22.5 -1t26.5 2.5t21.5 2q4 -6 10 -7.5t11 -1t13.5 2.5t12.5 2q6 0 26 -5q13 20 37 15q9 -1 53 -12q3 -1 8.5 0.5t10 4t7.5 1t3 -8.5q7 -1 14.5 0.5t12.5 3t12.5 6.5t11 7.5t11.5 9.5t10 8q18 15 28 48t17 44q18 26 43 87t43 85q2 3 12.5 18t18 22.5t16.5 11.5q4 4 0.5 17.5 t1.5 21.5l8.5 8.5t8 8.5t5 9.5t3.5 14.5q2 32 28 90q3 5 15.5 20.5t21.5 28t6 16.5q-3 1 -6.5 0.5t-4 -0.5t-2 2t0.5 6q13 1 23 18t18 17q0 -5 0.5 -6t1 -1.5t3.5 -1.5t7 -3q3 -2 3 -5t-1.5 -7t-1.5 -6q-3 0 -6 2t-6.5 2t-7.5 -4q0 -4 3 -5.5t8.5 -2t8.5 -1.5 q1 -3 -0.5 -5.5t-3 -4t-2 -3.5t1.5 -3zM455 1133q22 11 28 -5q3 -8 -3 -12.5t-16 -9.5t-13 -10q-7 -4 -14.5 2t1.5 14q9 3 11.5 4t6 5.5t-0.5 11.5z" />
<glyph unicode="I" horiz-adv-x="544" d="M457 1159q28 11 40.5 -9.5t-3.5 -39.5q-5 6 -25 18q-27 15 -23 23q2 4 11 8zM494 1081q3 -5 3.5 -12.5t-1 -15.5t-5.5 -19.5t-7.5 -19.5t-8.5 -20.5t-8 -18.5q-4 -9 -8 -45q-1 -19 -31.5 -81t-46.5 -89q-47 -63 -53 -105q-1 -6 -2 -9.5t-2 -4.5t-2 -1h-2.5h-2.5t-2 -1.5 t-2 -5.5q-2 -16 -14 -43q-13 -35 -37 -78q-2 -4 -12 -9t-12 -14q-8 -8 -12 -34t-11 -35q-11 -19 -50.5 -106t-43.5 -105q-1 -8 -17 -35q-3 -7 -3 -18.5t1.5 -26.5t1.5 -23q0 -9 7.5 -22t9 -19.5t-9.5 -17.5q-47 -34 -80 14q-29 39 -29 103q0 47 16 78q4 9 18.5 56t22.5 56 q47 47 62 135q7 10 19 7.5t14 1.5q8 13 -2 21.5t-5 15.5q9 12 17.5 26.5t14 25t13 29.5t10.5 26.5t11 30.5t10 27q7 20 45.5 84t46.5 99q3 21 24 49.5t26 44.5q22 65 48 90.5t81 13.5z" />
<glyph unicode="J" horiz-adv-x="628" d="M-614 -946q-5 2 -18 -4t-30 -15.5t-22 -11.5q-3 -1 -11 -3q-17 -3 -17 -8q-1 -1 1 -3q2 -4 -2 -4q-13 0 -18 7q-1 2 2 3q2 3 0 4t-8.5 3.5t-12.5 6.5q-1 1 -1.5 -0.5t-1 -4l-1 -5t-1.5 -4t-3 -0.5q-11 10 -17.5 18.5t-15 23.5t-10.5 19q-11 20 8 49.5t19 38.5q0 4 4 5 t8.5 0t8.5 0t3 6q-1 0 -4 1t-4.5 2t-4 2t-3.5 3t0 4q1 4 21 7q14 1 4 9q-8 1 -13 1.5t-7 -0.5t-7 -3l-10 -4q0 7 1 11.5t5 7t5.5 3t9 1t9.5 0.5l19 6q3 -10 20 -10q0 -1 3 -8t3.5 -11.5t-2.5 -7.5q-3 -1 -7 0t-6.5 2t-5.5 -0.5t-5 -7.5q11 0 15 -6.5t2 -17t-5.5 -20.5 t-9 -22t-6.5 -16q18 -15 37 0q-3 7 -1.5 9.5t9.5 0.5q9 1 28 7.5t21 7.5q34 11 109 61q32 3 41 16q4 7 47 27t47 20q4 14 22 30t29 23t33 19q32 11 32 37q0 7 70.5 62.5t148 116.5t89.5 75q14 17 45.5 52t48.5 55.5t38.5 51.5t33.5 60q21 57 81 180q36 73 46 176 q2 51 20.5 153.5t22.5 141.5q4 27 4 97q0 116 -35 440q-1 6 -2.5 18t-2 19t0 17t4.5 18q3 9 -3 30t-7 27q-2 16 -3.5 46t-1.5 36q-2 19 -34 -2q-42 -28 -52 -30q-7 -1 -12 3q1 2 4.5 4t6 3t1.5 3q-4 7 -14 1t-14 -13q2 -5 11 -13t5 -16q-6 -6 -12.5 -3.5t-20 8.5t-20.5 6 q-9 1 -10.5 -2t1 -10t1.5 -11q1 -1 6 -1t6 -3q1 -2 -0.5 -3t-4.5 -1h-5.5h-5.5h-2q-11 2 -16.5 5t-11 10.5t-9.5 11.5q-12 11 -8.5 29.5t18.5 27.5q9 7 37 12q1 2 3.5 6.5t4 5.5t5 2.5t9.5 0.5t15 -5q1 -2 3 -7t4 -9.5t4.5 -7.5t5.5 -2.5t7 6.5q4 7 -4 19.5t-4 17.5 q18 -1 23.5 2.5t7.5 15.5t6 19q2 0 4.5 -1t4 -2t3 -0.5t2.5 3.5q-9 16 -4 21t14 3t19 0t12 13q1 6 -1.5 10.5t-4.5 7t0 6t10 8.5t16 19.5t11 17.5q9 8 16 8.5t15.5 -2.5t15.5 -2q21 6 29 3t12 -23q-31 -38 -18 -123q4 -32 13.5 -97.5t15 -116.5t5.5 -97q33 -191 33 -308 q0 -50 -2 -77q-2 -25 -2 -72q0 -61 4 -90q1 -23 -14 -130.5t-21 -121.5q-13 -38 -35.5 -119.5t-45.5 -143.5t-56 -108q-28 -38 -64.5 -98.5t-56.5 -89.5q-4 -4 -9.5 -8t-13 -8t-11.5 -7q-8 -4 -14.5 -12t-13.5 -18.5t-11 -14.5q-45 -56 -134 -136.5t-141 -98.5 q-38 -8 -158 -101q-39 -28 -85.5 -59t-113.5 -65t-93 -27zM217 1288q21 22 23 21q0 -2 -11 -29q-9 -2 -12 0t0 8zM-668 -621q3 -1 7 5t8 4q-5 -4 -6.5 -9.5t-2 -9.5t-6 -7t-18.5 -3q0 6 6 13.5t12 6.5zM-672 -653q7 -2 10.5 -7.5t-2.5 -11.5q-5 -4 -7 6zM-723 -696q3 8 10 6 q9 -2 0 -17q-8 -12 -11 -1zM-692 -702q2 0 9 3.5t9 2.5q0 -13 -6 -17q-12 8 -12 11zM-684 -717q0 -1 0.5 -2l2 -4t1.5 -4v-2t-4 1t-8 5t-4 4q8 0 12 2zM-750 -719q4 -7 4.5 -19t-8.5 -14q-5 1 -3 13.5t7 19.5zM-717 -725q16 0 31 -8q10 -7 -4 -12q-7 -2 -18.5 5.5t-8.5 14.5 zM-729 -750q13 -5 23 -1.5t15 0.5t1 -21q-45 0 -46 10q-1 5 7 12z" />
<glyph unicode="K" horiz-adv-x="1193" d="M412 1249q-3 -15 2 -32q1 -17 8.5 -32t5.5 -24q-1 -14 2.5 -20t11 -12t11.5 -15q0 -3 -3.5 -3t-7.5 1.5t-6 -0.5q1 -7 1 -13.5t-0.5 -14t-1 -11.5t-2.5 -12t-3 -10.5t-4 -13.5t-4 -13q-4 -13 -12 -20t-9 -21l-2 -35q-2 -9 -10 -26.5t-10 -22.5q-9 3 -13 -0.5t-1 -15.5 q-2 -10 -6.5 -20.5t-12.5 -24.5t-10 -19q-4 -9 -4 -22t-10 -23q-8 -20 -28 -80.5t-39.5 -109t-39.5 -76.5q-12 -17 -21.5 -41.5t-15 -42t-13.5 -49t-11 -43.5q-1 -4 -3.5 -11.5t-4 -13t-1.5 -11.5t4 -9t13 -4q12 -1 32.5 14.5t24.5 17.5q7 5 34.5 21t45 29t31.5 30 q8 8 18 14t25.5 13t21.5 10q28 16 54 70q5 0 13 9t18.5 23t17.5 21q12 12 31 34.5t24 28.5q21 24 81 70.5t83 77.5q17 22 55.5 60t40.5 40l25 13q0 19 14 22q37 18 91.5 80t66.5 72q4 3 16.5 10t21.5 14t11 13q2 7 9 -1t13 1q2 2 -7.5 10t-0.5 14q13 -3 16.5 3t6 16t10.5 14 q2 0 6 -3t5.5 -3.5t4.5 2.5q0 15 13 33q10 4 15 -11t13 -6q5 7 0 16.5t-8 13.5t10 11q24 8 35 17q4 5 6.5 18t7.5 18q26 17 55 18q24 0 21 -22q-1 -3 -0.5 -9.5t-0.5 -11t-5 -7.5q-7 0 -8.5 6t-7.5 6q-3 1 -4 -2t-0.5 -8t1.5 -10.5t1 -10t-2 -6.5h-25q0 -11 -2 -14.5 t-4.5 -2.5t-6.5 -2t-7 -12q-15 -43 -45 -47q0 -12 -6.5 -13.5t-10.5 -10.5q-9 -18 -14 -23q-8 -11 -10 -13t-6.5 3.5t-8.5 7.5q-3 -10 8 -16q-2 -5 -21 -21t-35 -31t-13 -20q2 -7 -4 -17.5t-20.5 -27.5t-14.5 -18q-6 -10 -24.5 -22t-24.5 -19q-25 -25 -54 -64q-4 -5 -10 -14 t-9.5 -13t-10 -6.5t-15.5 -1.5q-3 -16 -29.5 -41t-69.5 -60t-64 -56q-10 -10 -27 -31.5t-33 -36.5t-35 -23q-12 -5 -13 -12.5t-9 -13.5q-31 -23 -49 -49q-17 -22 -19 -45t10 -47.5t24 -40.5t32 -39q10 -10 60.5 -94.5t51.5 -96.5q4 -7 19.5 -14.5t17.5 -22.5q1 -8 9.5 -23 t9.5 -18q2 -3 8 -12.5t8 -13t6.5 -12t5 -13.5t1 -12t-2.5 -13t-8 -12q-23 -25 -78 45q-13 17 -61 54q-8 7 -24 29.5t-25 31.5q-4 5 -5 15.5t-6 15.5l-18 14q-12 7 -49.5 70.5t-34.5 68.5q-20 4 -31 35t-22 39q-10 -16 -34.5 -33t-35.5 -32q-3 -6 -67 -47t-76 -46 q-28 -6 -51 -32l-56 -9q-7 -3 -9.5 -4.5t-1.5 -2.5t2.5 -2t2.5 -2.5t0 -4.5q-7 0 -22.5 -4.5t-27 -3.5t-19.5 12q-22 25 -25 62q0 14 4.5 38.5t5.5 36.5q6 0 9.5 1.5t4 3.5t2 6t3.5 8q7 10 2 14t0 19q7 13 17.5 46t21.5 50q16 24 16 51q8 35 43.5 112.5t42.5 96.5 q23 53 94 227q4 12 13.5 38t23.5 62.5t26.5 62.5t18.5 26q9 2 16.5 4.5t16 6t14.5 5.5q9 4 12.5 10.5t3.5 11.5t-2.5 14.5t-2.5 12.5t-0.5 19t-4.5 30q-2 6 -14 13t-12 16l4 16q-10 0 -17 7q10 15 12 17t9 -1q-1 -4 0 -8t3 -8t3 -7q6 -11 10 0q-1 8 3 4q1 -1 4 -3zM403 1341 q-4 -5 -10 -13q-4 -7 -6 -7.5t-8 4.5q0 6 7 14t17 11q6 26 35 26q9 0 13 -2.5t3.5 -7t-2.5 -8.5t-6.5 -11t-5.5 -10q-9 -2 -20 1.5t-17 2.5zM442 1276q21 12 37 8t29 -29q-9 0 -21.5 -7.5t-21.5 -3t-23 31.5zM1243 1225q-3 8 -1.5 11.5t0 7.5t-10.5 9q-4 -7 -0.5 -26 t12.5 -19q6 11 0 17zM463 1305q-5 20 5 24t24 -4q-4 -11 -13 -19.5t-16 -0.5zM371 1288q-6 0 -9 8q9 9 15 2q8 -6 -1 -9q-2 -1 -5 -1zM1276 1237q4 9 2 13.5t-10 2.5q0 -16 8 -16z" />
<glyph unicode="L" horiz-adv-x="1005" d="M983 297q9 0 21 -33q-6 -4 -11.5 2t-9.5 6q-5 -5 -14.5 -19t-22.5 -17q-4 -1 -16.5 -8.5t-20.5 -8.5q-4 -1 -20 0.5t-19 -4.5q-24 -19 -99 -32.5t-89 -18.5q-15 -5 -26.5 -2.5t-23 0t-16.5 -14.5q-2 -5 -41.5 -12.5t-46.5 -3.5q-3 0 -9 -5.5t-9 -6.5h-66 q-76 -22 -145 -31q-65 -5 -138 4.5t-91 44.5q-4 6 -15 12t-12 7q-27 15 -39 63t-8 82l22 94q3 24 11 49.5t14.5 44t21 46.5t21.5 40t25.5 43t23.5 39q-13 0 -13 2q0 1 1 3l24 14q-2 16 19 57.5t14 50.5q6 16 31 41q22 28 41 86t42 105t60 67q17 -13 35 -6t21 27 q2 11 -28.5 29.5t-19.5 31.5q11 0 14.5 4.5t7 13.5t11.5 15q21 13 38.5 9.5t27.5 -17.5q-1 -9 -2 -24l-1.5 -22.5t-3 -19t-7 -21.5t-11.5 -22q-3 -5 -3 -19.5t-3 -17.5q-14 -12 -15.5 -15.5t1.5 -24.5q-8 -16 -36.5 -61.5t-48.5 -84t-20 -61.5q-1 -12 -6.5 -24t-15 -26.5 t-13.5 -21.5q-41 -59 -71 -145l-70 -179q-1 -2 -9.5 -24.5t-11 -31.5t-6.5 -26t-4 -30q0 -55 52 -76q50 -23 116 -23q47 0 113 15q20 5 76 12t82 16q18 7 66 12.5t71 18.5q41 18 215 35q25 0 37 2q10 0 13.5 -0.5t5 -1.5t1 -3t1 -6t5.5 -9q7 0 13 8t12 8zM1012 301 q15 3 18 0t0.5 -6.5t-6.5 -9.5t-4 -9q-6 0 -10 6t-4 12t6 7z" />
<glyph unicode="M" horiz-adv-x="1536" d="M604 1249q6 -18 -12 -12q-5 -4 -5.5 -9.5t1.5 -12.5t2 -11q0 -35 10 -55q-13 -26 -18 -76.5t-9 -64.5q-11 -37 -20 -81.5t-12.5 -71.5t-11 -85t-9.5 -76q-4 -25 -4 -52.5t1.5 -46t5.5 -51t5 -50.5q1 -14 1 -17t4 -8.5t9 -6t19 -3.5q12 -3 51 2q14 2 31.5 13t11.5 18 q-5 5 -7 8.5t0 5.5t5 3.5t9 4t10 4.5q26 13 33 29q10 25 49 56.5t85 65t64 56.5q14 18 49 48t52 58l22 33q6 7 20.5 12.5t20.5 10.5q10 9 47 48.5t69.5 68.5t49.5 32q8 2 49.5 36.5t86.5 74t50 43.5q13 11 34 21.5t45 18t41.5 -0.5t19.5 -33q3 -26 -5 -50t-23.5 -52.5 t-21.5 -46.5q8 -51 -18 -80q-16 -15 -24 -50t-11 -43q-12 -33 -42 -87.5t-38 -77.5q-3 -8 -7 -28.5t-10 -34t-18 -23.5q-9 -8 -11.5 -27.5t-6.5 -28.5q-5 -14 -14 -40.5t-14.5 -42t-15 -36t-19.5 -36.5q-4 -4 -14.5 -27.5t-10.5 -28.5q2 -13 -2.5 -27.5t-15.5 -36.5t-13 -28 q-45 -126 -20 -168q2 -7 12.5 -14.5t12 -11t-8.5 -17.5q-13 -13 -43 -16q-5 0 -15 -2t-14.5 -2t-10.5 3t-11 9q-20 30 -25.5 50t-5.5 57q0 5 0.5 21t2.5 26t7 18q9 10 6.5 24t0.5 25q52 144 75 160q-2 26 20.5 65.5t24.5 53.5q4 28 25 65q28 47 89.5 205t68.5 174q2 5 13 27 t15 35q-20 0 -41 -12.5t-51 -40.5t-33 -31q-16 -15 -50.5 -46t-60 -54t-50.5 -42q-10 -7 -29.5 -29t-34.5 -30q-19 0 -10 -21q-3 -5 -17.5 -11.5t-19.5 -12.5q-1 -1 -3.5 -7.5t-5.5 -11.5t-7 -4q-16 3 -21 -4q1 -2 3.5 -3.5t4 -2.5t0.5 -2l-36 -35q-5 -5 -32.5 -29 t-46.5 -42.5t-28 -30.5q-7 -10 -18 -10t-17 -4q-9 -6 -8 -16t-16 -21q-22 -12 -68.5 -55t-79.5 -50q-14 -4 -16 -12.5t-15 -15.5q-29 -16 -57 -13q-18 1 -48.5 10t-45.5 11q-28 19 -45 78q-4 11 -4.5 21.5t0 17t3 20t3.5 20.5q2 21 -3.5 63t-4.5 60q-9 0 -13 -7t-5.5 -19.5 t-2.5 -14.5q-5 -16 -20.5 -33t-20.5 -28q0 -24 -24 -65t-27 -48q-7 -18 -37.5 -103t-56 -142t-51.5 -89q-6 -9 -10.5 -20t-6.5 -19t-4.5 -22t-3.5 -20q-4 -13 -10 -23t-16 -22t-15 -19q-6 -9 -1 -26.5t15 -20.5q14 -5 18 -16.5t-5 -22.5q-6 -7 -14.5 -18t-13.5 -17t-15 -12 t-23 -8q-41 -4 -56 26t-5 70q-2 13 -0.5 18.5t6.5 17t6 17.5q2 8 5 31t6.5 38.5t9.5 29.5q9 24 36.5 80.5t32.5 89.5q2 11 12 8.5t11 1.5q0 27 3.5 41.5t16.5 38.5q21 32 46.5 102.5t47.5 101.5q22 39 25 56q9 39 58 117t59 114q2 7 4.5 21t4.5 22.5t7.5 17.5t13.5 15 q3 7 0.5 26t-0.5 27q3 9 32.5 63t37.5 66q12 18 12 55q1 14 12.5 23.5t10.5 15.5q-8 13 -7.5 18t7.5 17.5t8 20.5q11 1 28.5 13t28.5 16t33 -5zM655 1225q18 -24 0 -54q-23 6 -31 32q-9 23 10 26q9 1 21 -4z" />
<glyph unicode="N" horiz-adv-x="1323" d="M983 483q-1 6 8.5 23.5t22.5 39t16 27.5q30 42 31 43q9 10 14 21t10 25.5t9 23.5q3 7 13 14t13 11l10 32q16 19 35 54t40.5 78.5t29.5 58.5q4 7 5.5 20.5t6.5 20.5q7 12 26.5 36t31.5 45t10 40q0 52 16 75q12 15 28 17t30 -10q33 -35 18 -101q-20 -92 -82 -200 q-6 -12 -18.5 -29t-18.5 -31t-8 -33q-1 -3 -13.5 -10.5t-15.5 -21.5q-7 -13 -25 -52t-36 -65q-5 -8 -10.5 -28t-14.5 -29q-32 -22 -55 -80q-4 -9 -17.5 -21t-17.5 -18l-24 -47q-5 -6 -19 -14.5t-22.5 -15t-5.5 -11.5q5 -3 7 -6t0 -6t-4.5 -5.5t-7 -6t-6.5 -5.5 q-25 -17 -58.5 -72t-41.5 -65q-1 -1 -14 -20t-21 -28.5t-23 -28.5t-26.5 -30t-25 -22.5t-26 -15t-22.5 0.5q-11 4 -11 2q0 -1 7 -6q13 -9 12 -12q-1 -4 -51 0q-4 -3 -8.5 -4.5t-7.5 -2t-8 1t-7 2t-8.5 3.5t-9.5 4q-23 0 -35.5 12.5t-24 38t-18.5 35.5q-17 13 -33 52.5 t-16 60.5q-1 20 -14 76q-11 51 -26 152t-27 151q-5 25 -5.5 52.5t1.5 59.5t1 52l-18 184q-11 -2 -15.5 -9.5t-5.5 -20.5t-4 -19q-3 -8 -12 -21t-12 -18q-7 -9 -40.5 -86.5t-33.5 -89.5q-4 -8 -9.5 -15.5t-8 -13.5t-2.5 -18q-1 -8 -9.5 -19t-9.5 -14q0 -3 3 -12.5t1 -14.5 t-12 -6q-4 -1 -11.5 -16t-17 -38.5t-17 -44t-14.5 -41t-8 -22.5q-42 -92 -63 -186q-9 -44 -12 -90q4 -9 9.5 -12t7.5 -3t3.5 -6t-0.5 -20q-1 -17 -3 -25.5t-8.5 -17t-19.5 -15.5q-23 -6 -34 -2t-33 19q-42 28 -27 125q9 52 39 137q6 24 10 68l80 170q0 18 6.5 21t6.5 15 q0 8 20 58t25 59q2 3 5.5 3.5t6.5 -0.5t5.5 0t2.5 5q-3 15 4 32.5t4 29.5q11 27 39.5 79.5t47 97.5t18.5 81q0 6 7.5 21.5t12 28.5t0.5 17q-12 9 15 24q19 10 18 3q-1 -3 -3.5 -7.5t-1.5 -5t5 0.5q15 7 15.5 18.5t-6 23t-5.5 15.5q1 3 4.5 11t5.5 12l5.5 11t6.5 10.5 t7.5 7.5t8.5 4t9 -0.5t11 -5.5t12 -13l16 -47q4 -7 17 -21.5t16 -25.5t4.5 -33t3.5 -31q4 -29 20 -99.5t19 -109.5q1 -20 -2.5 -76.5t0.5 -76.5q2 -11 25.5 -150.5t27.5 -204.5q0 -16 9.5 -40.5t9.5 -43.5q0 -9 6.5 -24t18 -36.5t14.5 -27.5q12 -28 22 -36q9 -7 15.5 -7 t10 3.5t9 9.5t10.5 8q6 3 28.5 34.5t24.5 37.5q5 12 18.5 17t16.5 7q12 11 57.5 76.5t51.5 77.5q16 38 30 45q6 3 14.5 5t11 5t1.5 12z" />
<glyph unicode="O" horiz-adv-x="1046" d="M811 1067q23 15 0 29q-6 0 -10 0.5t-8 3.5l-6 4.5t-7 7t-8 8.5t-37 14q-14 4 -14 8q0 1 2 3q5 3 12 2t13 0t4 6q-1 4 -5 5t-11.5 1.5t-10.5 1.5q-8 1 -9.5 6.5t-8.5 6.5q-3 0 -5 -0.5t-3 -2t-1.5 -4t0 -5.5l1 -6t2 -7t2 -7t2 -7t2.5 -7q-9 -11 -25 5q-5 5 -8.5 5t-5.5 -3 t-6 -7.5t-9 -7.5q-6 4 -14 9.5t-9.5 7l-6 6t-2.5 6.5t0 10q2 14 -10.5 25t-22.5 -6q-7 -10 -13.5 -42t-13 -50.5t-16.5 -8.5q-4 4 3 15.5t1 15.5t-21 -2t-20 -14q-2 -2 -9.5 -7t-13 -12.5t-6.5 -17.5q-2 -25 -22 -41t-47.5 -30.5t-38.5 -29.5q-9 -12 -20 -37.5t-17 -35.5 q-116 -181 -160 -375q-2 -9 -11.5 -27.5t-12.5 -27.5q1 -16 -5 -30t-2 -38q6 -47 -22 -94q3 -16 9.5 -51t10.5 -52t16 -40t31 -37q39 -33 80 -33q38 0 92 33q3 2 11.5 7t15.5 10t14.5 10.5t11 11t1.5 10.5q9 14 30.5 3.5t30.5 -7.5q6 5 3.5 8.5t-12 11.5t-11.5 12 q4 11 29 27q28 17 28 -2q0 -3 -7.5 -12t-8.5 -13q10 -2 16 -12q1 -3 -6 -2q-19 4 -23 2q0 -9 3 -11t12 0.5t14 2.5q3 -8 -5.5 -19t-6.5 -18q3 -6 6.5 -6t11 5t14.5 10.5t15.5 10.5t15.5 5q16 0 -36 -36q-14 -10 -17 -12q-23 -14 -62 -52.5t-53 -49.5q-5 -4 -7 -4.5t-7 -0.5 t-10 -1q-7 -2 -18 -11.5t-17 -11.5q-88 -30 -135 -14q-33 10 -82.5 51.5t-59.5 73.5q-1 4 -0.5 20t-5.5 17q-12 10 -23 31.5t-7 31.5q6 18 -5 45q-9 25 5 111.5t26 124.5q4 13 17.5 43t21.5 55.5t4 44.5q-1 4 6.5 26t15.5 45.5t9 25.5q29 87 91.5 182t127.5 151q16 13 16 35 q0 12 35 35q66 41 101 76l4 4l4 4l3.5 3.5t3.5 3t4 2.5t4.5 2.5t4 2t5 1.5t6 0.5t6.5 0.5q19 0 51 18l31 19q10 2 26 -4t27 -10t12 0q4 11 21.5 8.5t37 -11t29.5 -16.5q23 -16 41.5 -60.5t24.5 -53.5q-6 -2 -7 -7.5t1 -13.5t5 -16t6 -17.5t3 -15.5q-13 0 -33.5 3t-39 10 t-15.5 16q4 18 18 12q3 -4 33 -4zM633 231q-7 -18 -29 -4q-10 21 -20 13q8 -13 0 -25q-7 -9 -17 8q-6 14 -4.5 14t9.5 1t10 8q2 5 -1.5 12t1.5 10q1 2 5.5 6.5t5.5 6.5t2.5 6.5t0.5 9.5q-3 23 10.5 45t34.5 23q0 -3 -5.5 -9t-8 -9t1.5 -5q5 -1 9 1.5t7 9.5t4 9.5t4 10.5 q-1 3 -3 4.5t-4.5 1.5h-5t-3.5 1t0 5l39 21q5 18 26 22q5 1 10.5 7t11.5 15t10.5 17t9.5 17.5t6 11.5q27 38 88 153q12 27 12 62q0 29 -8 75q-2 10 -2 29q-11 3 -29 21q-16 -25 -44 -39.5t-52 -5.5q-13 5 -16 8t-0.5 5t12.5 7q7 4 29 0.5t28 3.5q-7 5 -14.5 5.5t-12.5 -1 t-9 -0.5t-5 8q1 0 2 1q13 4 14 6q0 8 -2.5 9.5t-6 -0.5t-7 -2.5t-4.5 3.5q-6 16 31 35q30 16 18 51q12 3 16 6.5t4.5 15t2.5 17.5q-8 0 -11.5 -9t-1.5 -18q-6 -9 -10 0q-4 3 -2 11t4 12t7 12t7 12q5 8 7.5 10.5t8.5 3.5t13 5q11 6 12 6t9 -8q4 -10 3 -13t-7.5 -10.5 t-8.5 -13.5q-3 -6 -4 -12.5t-0.5 -10t-3 -5.5t-12.5 -3q-4 -1 -6 -2t-2.5 -1.5t0 -3t0.5 -3.5q-1 -9 21 1l12 6l6 3q10 6 10 0t-10 -8q-1 -7 12 -12t31.5 -11.5t25.5 -13.5q3 -20 7 -26t18 -15q22 -40 22 -107q0 -43 -6 -73q-9 -46 -78.5 -154.5t-111.5 -120.5 q-16 -5 -6 -20q4 -5 -8 -13.5t-27 -17t-17 -12.5q6 -6 3.5 -9t-10.5 -3.5t-15.5 -2t-11.5 -5t2 -13.5q2 -2 5 -2.5t5 0t3.5 0.5t2.5 -1.5t0 -4.5q-1 -6 -26.5 -8t-26.5 -9q16 -12 4 -45zM649 268q20 8 21 6q2 -2 -8 -14q-8 -3 -11 -1t-2 9zM532 186q12 -2 4 -18 q-6 -13 -10 -8q-3 2 -2 10q-2 5 0.5 11t7.5 5zM575 182l4.5 -4.5t3.5 -5t-1 -4.5t-7 -2q-17 -6 -17 3.5t17 12.5z" />
<glyph unicode="P" horiz-adv-x="897" d="M258 1227q2 -8 3 -1q1 5 2 6l3 -1q14 -19 17 -49q-4 -10 -9.5 -12.5t-9 -0.5t-6.5 5l-4 4l4 20h-4.5t-2.5 -0.5t-1.5 -1t-1.5 -2t-2.5 -3.5t-3.5 -5q-4 -4 -4 -12q-7 0 -10.5 3t-3.5 5.5t0.5 9.5t0.5 10q9 -1 10.5 3t0 9.5t2.5 8.5l32 49q3 0 18 0.5t24.5 3t15.5 8.5 q1 1 4.5 2t6.5 1.5t5.5 3t1.5 5.5q-13 5 -15.5 15.5t4.5 23.5t16 25t19 24.5t13 16.5q25 34 72 53t96 21q0 -14 3.5 -17.5t8.5 -0.5t15 6.5t18 2.5q31 -5 70 -32q25 -18 48.5 -45t38.5 -47.5t36 -61t27.5 -55t27 -62.5t22.5 -53q29 -29 29 -100q0 -60 2 -70q3 -23 -11 -39.5 t-16 -30.5q-2 -22 -12.5 -44t-19 -33.5t-30 -35t-28.5 -32.5q-15 -18 -57 -44t-51 -42q-15 -6 -44 -24.5t-48 -24.5q-15 -5 -37.5 -19t-32.5 -18q-7 8 -8 14t4 9t11 5t14.5 4.5t13.5 4.5q47 23 52 35q3 7 -3 14q-13 -4 -33 -10.5t-31.5 -10t-29 -6.5t-35.5 -4 q-17 0 -28 -8.5t-27 -26.5q-5 -4 -46 -12q-20 -3 -21 -9q-1 -4 5 -9q5 0 7.5 -1.5t4 -4.5t2.5 -9q-10 -2 -43.5 -8t-52.5 -8q-11 -11 -12.5 -29t-7.5 -30q-33 -54 -74.5 -145t-67.5 -134q-6 -11 -27 -42t-30 -50q-19 -1 -32 0t-21 10t-14 31q-4 17 0.5 30.5t15 29.5t14.5 26 q-4 22 12 40t19 32q11 67 53 149.5t91.5 166.5t66.5 136q1 4 4 15.5t5 18.5t6.5 20.5t8.5 20t10 17t12.5 13t15.5 6.5t18 -2q13 5 1 9q-21 6 -24 11q-4 10 -3.5 15.5t6.5 18t7 17.5q15 52 23 55q6 3 11 -11q1 -2 1 -3q5 -3 11 0.5t12 9.5t10 7q17 0 24 7t17 9 q4 -11 -3 -21.5t-7 -11.5q-1 -6 0.5 -22t-0.5 -23q-7 -27 -21 -41q-7 -7 -8.5 -15t0.5 -14.5t0 -17.5q-7 -42 -31.5 -104.5t-29.5 -81.5q15 0 34 8q6 2 22.5 -2.5t23.5 -3.5q5 1 26 4.5t35.5 6.5t29.5 10t19 16q4 7 8 10.5t6 5t9.5 5t11.5 5.5q8 3 23 6.5t22 6.5q20 9 63 43 t58 53q44 47 67 90q13 25 14 52t-5 53q-8 57 -30.5 107.5t-63 118.5t-60.5 109q-3 6 -7.5 8.5t-8.5 3t-11.5 1t-11.5 0.5q-9 4 -17 10.5t-10.5 6.5t-19.5 -1q-29 9 -46.5 9t-45.5 -17l-45 -25q-5 -3 -14 -5.5t-11 -4t-5.5 -7t1.5 -13.5q2 -6 -7.5 -13t-25 -13t-28 -9.5 t-21.5 -5.5q-2 -1 -10 -2.5t-10.5 -2.5t-10 -3.5t-9 -4.5t-6.5 -6t-3.5 -8t0.5 -10zM201 1116q1 -1 3.5 -4t4 -4t3.5 -2t4.5 0t4.5 4q-23 21 -8 64q3 -3 19.5 -14.5t21.5 -20.5q11 -18 5.5 -22t-15.5 -1.5t-11 -5.5q5 0 13 -4q0 -4 -4.5 -7.5t-3.5 -6.5l18 -9 q-3 -13 -14 -18q0 4 -5 11.5t-4 13.5q-17 0 -31 6.5t-1 19.5zM383 1077q42 -13 29 -49q-7 4 -10.5 13.5t-4 11t-10.5 -5.5q-3 -5 -0.5 -9.5t0.5 -9.5q-9 -5 -11 1q-2 7 -18 -9q-7 4 4 31q-1 9 0 12.5t3.5 4t7.5 2.5t10 7zM485 565q8 -12 9 -16q-18 0 -62 -10t-53 -11 q-2 13 11.5 19.5t31.5 7.5t37.5 3.5t25.5 6.5zM205 1077q13 2 17 0t3 -12q-3 0 -8.5 -3.5t-7.5 -4.5q-12 9 -4 20zM383 991q4 -2 6.5 -5t1.5 -5t-8 -2q-23 8 0 12zM238 1057l9 -3q2 -3 3 -5q-3 0 -7.5 -0.5t-7 0t-6.5 4.5q-1 4 1.5 5t7.5 -1z" />
<glyph unicode="Q" horiz-adv-x="1110" d="M1081 1094q3 -13 15 -47.5t16.5 -58.5t1.5 -50q0 -51 -13 -107t-42 -88q-23 -23 -60.5 -75t-56.5 -86q-11 -19 -18 -24.5t-25 -8.5q0 -12 0.5 -19t-9 -19t-15 -19t-19 -18t-20 -16t-18.5 -13.5t-15 -10.5q-2 -2 -8 -6.5t-7.5 -6t-6.5 -5t-6.5 -6t-4.5 -6t-4.5 -7t-3 -8.5 t-2.5 -10q-12 0 -35 -17.5t-35 -11.5q-3 2 -4 0.5t2 -4.5q6 -6 6 -16q-36 -5 41 -125q15 -23 17 -27q9 -19 15 -30t10 -19t10.5 -16t9.5 -12t14.5 -16.5t19.5 -21.5q18 -20 51 -68.5t40 -57.5q2 -2 8 -10t8 -10t7 -8t8.5 -8.5t9 -6.5t11 -6.5t11.5 -4.5q16 -6 28.5 -15 t16.5 -20.5t-14 -21.5q-7 0 -8.5 3.5t-3.5 4.5q-6 0 -10 -2t-8.5 -6t-8.5 -6q-27 -7 -66 3t-49 34q-4 9 -10.5 13t-16 6t-14.5 5q-7 4 -10.5 12.5t-13.5 10.5q-9 8 -49 69.5t-48 65.5q-5 3 -12.5 12.5t-13 18t-6.5 8.5q1 3 4 5.5t4 4.5t0 6q-2 2 -3 2t-4.5 -2.5t-4.5 -3.5 q-56 100 -91 131q-2 -7 -6 -14.5t-11.5 -14.5t-14 -12.5t-18 -12t-18 -10.5t-20 -10l-18 -8t-17.5 -8l-14 -6q-24 -8 -50.5 -19.5t-48.5 -19.5t-52 -14q-19 -5 -33 -2q-8 14 -19.5 9t-19.5 7q-51 -14 -96 25q-40 37 -72 86q-31 45 -31 143l2 113q0 43 25 120q4 11 15.5 31 t15.5 33q1 6 46.5 95t47.5 93q23 49 74 123q12 18 45 47q9 9 50 62t73 71q6 5 11.5 5.5t8.5 0t7 2t9 11.5q8 14 12.5 15.5t18.5 -1.5q0 11 35.5 25t54.5 14q31 0 47.5 -1t43 -6.5t45.5 -20.5t32 -39q6 -12 7.5 -25.5t0 -35t-1.5 -28.5q-4 0 -10.5 0.5t-10 0.5t-9 -1.5 t-11.5 -5.5q-1 0 -10.5 -5t-10.5 -4t-9 3q-1 9 -6.5 24.5t-6.5 20.5q9 3 15 12t6 17q0 4 -10 -5q-6 -6 -7 -3q-2 5 -2.5 7t1 3l3 2t5 3.5t6.5 6.5q-6 4 -19 1t-26 -9t-23 -3t-10 19h6h5t3.5 0.5t3.5 2.5t2 6q-8 7 -15 7t-17 -14q-2 -2 -6.5 -9.5t-7 -10.5t-8 -7t-11.5 -5 q-4 -1 -6 0.5t-1.5 5t3.5 8.5q8 1 10.5 4t1 6t-3 6.5t-0.5 4.5q3 2 4 1.5t5 -3t7 -3.5q1 2 3 7t2 6.5t-3 4.5t-10 7q-10 6 -16 0q-2 -4 3 -9.5t3 -8.5q-7 4 -13 -5.5t-8 -25.5q-4 -17 -28 -33q-13 -7 -28 -20t-32 -30l-22 -22q-20 -18 -29 -32.5t-22 -22.5q-11 -6 -23 -36 t-24 -34q-19 -4 -35.5 -52t-32.5 -64q-9 -9 -44 -71t-38 -73q-11 -50 -22 -71q-9 -16 -14.5 -38t-10 -54.5t-6.5 -42.5q-6 -41 4 -96.5t35 -88.5q40 -55 92 -55q32 0 69 18q34 18 77.5 31.5t64.5 26.5q8 24 18 28h17q14 3 10 25q2 7 6.5 11.5t8 6t11.5 4t11 3.5q8 3 10.5 7 t0 8.5t-6 8.5t-8.5 9l-7 7q11 6 12 13t-3.5 12.5t-12 13t-10.5 11.5q-14 30 -18 80q0 4 -1.5 14t-1.5 14t0.5 10.5t3 11t7.5 7.5q16 20 -18 2l-3 -2q0 9 17 49q3 2 6.5 4t4 2.5t2 1.5t1 2t-0.5 2.5t-1 4.5l-2 6q-3 10 5 17t18 9q0 -15 -13 -41q29 -4 66 -41q-5 -24 2 -57 q17 -76 51 -80q13 16 57 43q15 9 33 32.5t23 28.5q21 5 38.5 23.5t35 45.5t28.5 38q25 19 52.5 58.5t37.5 47.5t18 19.5t14.5 29t10 29.5t9.5 35t8 31q4 11 4.5 17.5t-1 16t-1.5 19.5q-1 6 2.5 33t0.5 40.5t-18 8.5q-4 1 -6 5t-4 12l-2 8q-8 0 -34 20t-40 10q-5 -6 -5.5 -14 t-3.5 -11t-17 -1q-11 1 -27.5 -13t-21.5 -16q-3 15 -13 20q-1 1 -2.5 -1.5t-3 -6.5t-2.5 -9.5t-1 -11t1 -11.5q-1 -3 -18.5 -9.5t-22.5 -23.5q-35 0 -57 12q0 5 2 8t4 4t3.5 2.5t0.5 3.5t-6 7q6 11 12 8l6 -8q9 3 13 16t10 20q75 75 143 93q-2 6 1 10t10.5 6t15.5 3 t20.5 0.5t21 -1t20.5 -1.5t16 -1q24 0 41 -25q3 -4 6.5 -15t9 -15t16.5 -4zM739 958q4 0 1 -24q-3 -30 -21 8q-2 3 -4 8q-7 14 7 15q9 0 17 -7zM532 293q0 -9 3.5 -10t25.5 2q0 19 -2 21.5t-22 2.5z" />
<glyph unicode="R" horiz-adv-x="1300" d="M1204 -100q13 2 48.5 -3t35.5 -14q-2 -4 -5.5 -5t-6.5 0.5t-8 4.5t-8 4q-7 -6 6.5 -18t1.5 -19l-43 -18q-74 -31 -123 -27q0 -25 -104.5 11.5t-141.5 58.5q-43 26 -63 51q-52 61 -70 107q-11 0 -56.5 69.5t-45.5 83.5q0 12 -11.5 17t-11.5 20q-31 60 -41 101q-2 6 -10 11 t-11 6.5t3 6.5q1 0 11.5 3t14 5.5t9.5 9.5t-1 15q-6 10 -13 9.5t-15 -8.5t-13.5 -15.5t-7.5 -12.5q-8 50 -78 88q-25 11 -33.5 9t-23.5 -23q-8 -10 -40 -60.5t-56 -68.5q-17 -13 -21.5 -22t-7.5 -33q-12 -31 -56 -78t-58 -72q-11 -20 -26 -37t-41 -41t-34 -32 q-20 -20 -32.5 0.5t-8.5 46.5q1 10 10 19.5t9 19.5q-3 17 8 28q37 63 117 158q4 6 10 22t16 23q11 7 13 8t7 6.5t6 11t1 15.5q5 10 24 30t23 36q13 46 97 152t106 151q18 37 53 86q9 11 10.5 30t11.5 29q9 11 14.5 11.5t13.5 -7t13 -10.5q15 -9 29.5 -2.5t15.5 24.5 q2 9 -2 17.5t-15.5 22t-12.5 14.5q8 7 23 5t22 -9q13 -13 8 -60q-1 -9 -11 -24t-12 -21q-5 -11 -28 -58.5t-31 -74.5q-7 -32 -20 -49q-3 -5 -19.5 -24.5t-24.5 -33.5t-10 -28q25 -8 50.5 -6.5t52 10t51 21.5t48 27.5t43.5 28.5q9 6 13 9q53 31 117 88q6 6 16.5 17t19 20 t17.5 16q76 60 152 160q4 5 3.5 16t4.5 17q24 19 31 35q0 23 3 30.5t21 20.5q2 7 3 25q1 21 5 20q2 0 5 -4q6 -17 8 -18q1 0 2 5q1 10 -1.5 19t-6 16.5t-4.5 10.5q-2 11 12 43q4 15 4.5 27.5t0 18t-5.5 22t-7 22.5q-2 9 -3.5 20.5t-3 17t-6 13.5t-14.5 18q-7 8 -16 41 q-18 0 -35 17q-69 58 -193 84q-63 13 -94 0q-13 -6 -60.5 -34t-80.5 -38q-4 -2 -13.5 -5t-11 -3.5t-6.5 -4t-7.5 -8t-6.5 -12.5h-21q4 -25 -6 -24q-3 0 -6 4q-2 4 0 16q1 3 -4 0q-3 -2 -17 -10t-22.5 -13.5t-14.5 -15t-3 -18.5q4 -11 -4.5 -17.5t-15.5 -7t-15 -0.5 q0 22 13 53q6 15 11 11q9 -8 32 6q21 12 7 19q-2 0 -4 1q-5 2 -25 -8q-10 -5 -10 2q0 8 13 16.5t14 10.5q24 -4 26 -1q1 2 -1 5q-3 7 -10 7t-7 1q6 2 9 5t4 4.5t3.5 10t4.5 13.5q5 7 12 -3q3 -3 4 -5q2 -3 6.5 0.5t11.5 9.5t15 6q24 0 27 10q2 6 -8 8q-7 2 -19 -2 q-7 -2 -16 -10.5t-17 -1.5q-3 3 13 16t37.5 28.5t25.5 19.5q2 1 9.5 8t13 11.5t13 8t13.5 2.5q13 -3 31 7.5t35 7.5q5 2 11.5 8.5t10.5 7.5q6 1 9 0.5t8 -3t8 -3.5q5 -2 6.5 -1t3.5 5.5t4 5.5q6 3 62.5 -2t66.5 -8q95 -16 166 -80q6 -5 16 -8t17.5 -4.5t13.5 -8t6 -18.5 q12 -6 18.5 -17t14.5 -16q23 -17 46.5 -102.5t14.5 -116.5q0 -1 -12 -81t-18 -87q-3 -3 -10 -4.5t-9 -5.5q0 -17 -6.5 -35t-19 -43.5t-15.5 -32.5q-14 -32 -77 -111.5t-83 -82.5q-8 -1 -17.5 -19t-14.5 -22q-9 -7 -29.5 -25t-36.5 -30.5t-31 -20.5q-35 -30 -38 -31 q-5 -3 -11 -4t-8.5 -1.5t-4 -4t-1.5 -12.5q-20 -6 -58 -37t-67 -33q-29 -13 -49 -28q-13 4 -19.5 0.5t-9.5 -17.5q-4 -16 18 -46.5t23 -33.5q3 -20 24.5 -50t26.5 -42q42 -87 129 -196q72 -88 174 -134q71 -36 203 -32zM883 707q-6 -13 -6.5 -19.5t5 -7.5t13.5 1.5t23 8.5 q10 4 10 12.5t6 12.5q42 21 43 28q0 3 -4 4q-1 1 -2 1q-27 9 -40 2.5t-16 -20t-5 -23t-7 -5.5q-13 16 -20 5zM602 1405q20 20 5 30q-20 13 -57 -14q-2 -2 -5 -4q-2 -2 -2 -4t2.5 -3.5t7.5 -0.5q3 1 7 6t6 7t7 -1q2 -5 2 -6.5t-3 -7t-3 -6.5q3 0 9 -0.5t9.5 -0.5t7.5 1t7 4z M528 1311q2 4 4.5 10t3 8t1.5 8t0 11q28 -12 20 -48q-4 -18 -18 -16t-13 19zM489 1241q-13 0 -15.5 8.5t5.5 16.5q18 -2 37 -13q-12 -12 -27 -12zM457 1251q0 -4 4 -12q-2 -17 -9 -17q-4 -1 -8 9q0 20 2 22.5t11 -2.5zM508 1274q10 25 24 0q-11 -11 -24 0z" />
<glyph unicode="S" horiz-adv-x="811" d="M244 811q-1 -8 -10.5 -31t-8.5 -37q9 -57 19 -73q13 -22 33.5 -43.5t50 -47.5t41.5 -38q89 -89 118 -111q12 -7 54.5 -56t50.5 -63q38 -83 41 -92q13 -27 0.5 -79t-43.5 -58q-5 -2 -8.5 -5t-7 -9t-5.5 -9q-3 -5 -9 -6.5t-17.5 -0.5t-12.5 1q-9 -4 -31.5 -18.5 t-37.5 -18.5q-15 -5 -46 -4.5t-48 -3.5q-89 -28 -158 -28q-7 0 -10.5 1t-4 2t-0.5 2q1 2 0.5 2.5t-2.5 1t-6 -0.5q-8 -8 -45 -8q2 12 13 15.5t24.5 1.5t26.5 1q5 1 13 4t18 7.5t12.5 10.5t-2.5 13q-13 1 -46 -0.5t-46 0.5q-10 -3 -25.5 -9.5t-27.5 -9.5t-27 0 q-20 4 -39.5 20.5t-11.5 35.5q-2 4 -7.5 12t-9 13t-6.5 12.5t-4 13.5q-5 21 -1 37.5t21 27.5q18 12 25 2q3 -3 7.5 -3.5t7 0t4 -0.5t-0.5 -6q-7 -20 12 -21q7 0 7 -1q1 -3 -23 -21q0 -11 17.5 -11.5t21.5 -4.5q3 -3 7 -6.5t5.5 -5t4.5 -4t4.5 -3t5 -2t7.5 -2.5t11 -2 q90 -16 254 35q7 2 35 8.5t46 13t32 15.5q12 7 13 31t-5 34q-1 1 -3 2q-14 10 -7 19q4 4 -16.5 26.5t-28.5 22.5q-8 10 -38.5 30.5t-35.5 39.5q-3 8 -7 12t-11 7.5t-11 6.5q-4 4 -6 15.5t-10 13.5q-10 -7 -22 8q-2 3 -3 4l-65 66q-89 77 -111 139q-16 43 -16 96q0 80 29 140 q33 64 77 84q39 19 40 25q0 2 -3 3q-4 2 -5 7t3 8q7 4 11 -2.5t-1 -12.5q9 -3 9 4q2 22 -7 22q-2 -1 -17 -11q-6 -3 -5 2q0 12 28.5 35.5t45.5 31.5q5 3 48 22t46 19q4 1 14.5 1.5t18.5 1.5t12 5q4 3 8.5 10t9.5 10.5t13 4.5q11 1 30.5 -1.5t26.5 -2.5q-3 -16 13 -22 q14 -5 16 10v4q-17 -2 -16 3q0 2 7 5q57 25 114.5 -25.5t60.5 -115.5q0 -17 -9 -62q-11 0 -23 14.5t-26 14.5q-12 6 -18 22q-1 15 -23 30.5t-22 31.5q-17 0 -23.5 7.5t-13.5 27.5q-3 7 -10.5 10.5t-22.5 5t-18 2.5q-8 0 -14 1t-8 -4t-3 -8t0.5 -10.5t2.5 -12t3.5 -12.5 t3.5 -11q-25 -18 -79.5 -39t-65.5 -27q-6 -4 -19 -16.5t-22 -16.5q-15 -6 -25 -16.5t-21.5 -28t-19.5 -26.5q-7 -7 -11 -24.5t-10.5 -27.5t-21.5 -6q0 -5 1 -6.5t5.5 -3t6.5 -2.5zM547 1067q-5 11 -3.5 13.5t11.5 -1.5l4 -12q-1 0 -4 -1t-5 -1t-3 2z" />
<glyph unicode="T" horiz-adv-x="964" d="M205 1202q56 -3 94 -20q7 -9 60.5 -5t64.5 3q27 -3 87 -6t108.5 -7.5t85.5 -13.5q84 -25 118 -23q17 2 37.5 -0.5t47.5 -8t38 -7.5q22 -3 51 -10q30 7 36 -9.5t-7 -47.5q-1 -2 -4.5 -6t-4 -4.5t-2.5 -3.5t-3.5 -3t-4 -1.5t-5.5 -2l-6 -1l-9 -1.5q-51 -8 -74 -10 q-20 -2 -61 -2q-100 0 -190 22q-42 10 -131 16t-113 11q-16 4 -51.5 7t-55.5 11q-4 2 -10.5 11t-13.5 10q-4 0 -36.5 -9t-82.5 -4q-5 1 -10.5 6t-12.5 15t-8 12q-5 -1 -21 -13t-24 -7q-23 13 -4 41q1 0 31 37q12 13 43 14.5t43 9.5zM537 961q28 0 -13 -33q-1 5 -4 13t-4 11 q1 7 10.5 7t10.5 2zM188 272q-4 -7 -4 -24t-4 -25l-30 -61q-72 -148 -54 -275q-15 -11 -4.5 -38t4.5 -39q-14 -12 -20 -13t-23 8h-1q-21 10 -24 17q-2 3 -5 12l-3 10q-4 11 -15.5 38t-17 47t-3.5 40q6 47 39 135q6 15 10.5 50t15.5 53q13 22 61 124t48 109q-1 16 2.5 22.5 t17.5 16.5q9 7 9 27t8 29q12 11 20 26t16 38.5t11 31.5q3 7 32 48t29 69q69 106 117 143q5 3 21 4.5t20 9.5q-1 2 -6 6t-6.5 6t0.5 5h28q2 3 1 4.5t-4.5 4t-4.5 3.5q23 7 31 4q-1 -7 3 -11.5t5 -8.5q3 -12 -12 -46l-58 -106q-2 -4 -22.5 -28t-20.5 -42q0 -25 -25 -63 t-30 -60q-2 -3 -26.5 -67.5t-51.5 -85.5q-13 -10 -40.5 -74t-33.5 -74z" />
<glyph unicode="U" horiz-adv-x="1236" d="M340 1145q-2 -15 -9 -4q-2 3 -3 8q7 11 4 24.5t-10 25.5t-5 21.5t19 12.5q22 22 21 -10q0 -11 -3 -27q-1 -7 -7.5 -23.5t-6.5 -27.5zM291 1161q19 -4 27 -17.5t5.5 -30t-7.5 -30t-11 -24.5q-3 -4 -3 2q-1 14 -1 13q-1 2 -5 -8q0 -2 -1 -3q-3 -6 -8 -31.5t-13 -36.5 q-16 -20 -45.5 -95t-35.5 -81q-28 -74 -58 -183.5t-22 -148.5q1 -9 -5.5 -17t-7.5 -13q-2 -16 -2 -51q8 -81 50.5 -138t107.5 -57q34 0 80 22q8 3 25 12.5t31 15t28 7.5q15 3 38 20.5t23 28.5q13 5 60 41t65 31q-2 17 10 25t11 24q7 7 18 -1.5t23 -2.5q6 8 -2.5 14t-12 10.5 t18.5 20.5q19 12 47.5 41t46.5 39q0 14 11 15t11 18q14 9 38 37t42 37q19 3 11 20l24 21q116 116 182 301q13 35 25 47l33 35q28 21 55.5 14t30.5 -45q3 -17 2 -29.5t-14 -21.5q-6 -4 -10 -10t-5 -9.5t-3.5 -14t-2.5 -11.5q-3 -8 -13 -19t-12 -18q-26 -31 -51 -93.5 t-41 -87.5q-4 -6 -19.5 -27t-24 -35t-13.5 -26q-5 -10 -3 -16.5t1 -12.5t-10 -10q-15 -7 -27 -27t-22.5 -47t-16.5 -36q-21 -28 -65.5 -145.5t-47.5 -153.5q-4 -27 -18 -76t-18 -70q-9 -45 -9 -75q0 -60 22.5 -98.5t74.5 -30.5q6 1 2 -7q-8 -17 -6 -18q6 0 10 7t10 5 q20 -6 -10 -22q-4 -2 -9.5 -13t-15.5 -6q-12 5 -29.5 -3.5t-21.5 -8.5q-6 8 -39 8q-6 8 -31 30.5t-30 37.5q-3 14 -10.5 40.5t-11.5 41.5t-7 38.5t-2 45.5q3 112 35 203q4 12 41 110q5 13 15 50t20 57q-9 0 -19 -4.5t-20 -15t-16 -17.5t-16.5 -20.5t-12.5 -16.5 q-3 -3 -16.5 -8.5t-8.5 -20.5q-7 -11 -30.5 -22t-26.5 -13q-15 -22 -24.5 -27.5t-37.5 -8.5q-10 -8 -32 -37t-45.5 -50.5t-47.5 -23.5q-13 0 -16.5 -2.5t-6 -9.5t-9.5 -13q-17 -15 -60 -28q-70 -19 -112 -19q-30 0 -72 11q-21 7 -42 25t-26 32q-5 15 -11.5 24.5t-12.5 14 t-21 14.5q-27 17 -55 178q-3 6 -1.5 21l2 20t4.5 19t5 20q4 24 10.5 71.5t11 75.5t14 65.5t21.5 66.5q2 6 18.5 50t22.5 68q1 2 2.5 6.5t2 6.5t2 5.5t2.5 5.5t3 5t4 4.5t5 3t6 2.5q8 16 21 57.5t26 80t29.5 75t38 53t45.5 3.5q1 -2 -8.5 -12.5t-3.5 -18.5q7 -9 11 6q0 1 1 2 v2z" />
<glyph unicode="V" horiz-adv-x="1130" d="M1386 1319q-13 0 -15.5 -11.5t-8.5 -17.5q-14 -12 -52 -57.5t-71 -58.5q-3 -1 -37 -49.5t-45 -53.5q-5 -4 -12.5 -8t-10 -5.5t-5.5 -8t1 -15.5q-12 -16 -66 -66.5t-69 -76.5q-2 -3 -6.5 -12.5t-9.5 -12.5q-15 -10 -15 -6v3q-2 6 -6 7q-5 -9 -2 -16t-0.5 -13t-19.5 -10 q-4 -1 -4.5 -7t-11 -17t-37.5 -25q-4 -2 -5 -18t-12 -21q-24 -12 -38.5 -31t-20.5 -36.5t-19 -40t-32 -39.5q-3 0 -8 1t-7.5 0.5t-5.5 -5.5q20 -4 -2 -23t-45 -32q-13 -9 -11 -17t-1 -20q-1 -1 -16.5 -6.5t-16.5 -14.5h12q-2 -11 -8 -20.5t-18.5 -22l-14.5 -14.5 q-3 10 -11 11q-3 1 -5 1q-9 -18 8 -18q4 -1 4 -4.5t-2 -9.5t-2 -9q-12 -9 -54 -58t-46 -63q-4 -11 -16 -14t-17 -10q-3 -4 -6.5 -12t-7 -13.5t-8.5 -9.5q-9 -6 -16 -15.5t-14.5 -23t-10.5 -18.5q-7 -14 -25.5 -30t-24.5 -24q-40 -58 -122 -147q-40 -40 -58 -51 q-11 -7 -23 -9.5t-29 -2.5t-26 -1q-17 24 -41 39q-15 11 -22 97q-5 38 12 103.5t17 94.5q0 81 84 377q6 23 29.5 131.5t43.5 157.5q13 30 11 51q-2 16 6.5 46t7.5 42q0 4 -1 20.5t0 28t5 19.5q6 9 26.5 12t22.5 18q2 8 -1.5 16t-10.5 17.5t-10 14.5q-4 9 13 18.5t25 3.5 q4 -3 10 -2t9 -8q6 -7 3 -11.5t-3 -7.5q27 -24 12 -71q-2 -8 2 -40.5t-2 -33.5q-9 -11 -10 -18.5t1 -17.5t1 -21q-16 -133 -41 -195q-16 -40 -16 -63q4 -52 -60 -240q-12 -31 -22 -95t-19 -91q-19 -74 -28 -148q-13 -117 15 -91l3 3q5 5 39.5 35t63 56.5t28.5 31.5 q0 6 -0.5 7.5t4.5 7.5t10 10t16 16t23 27q91 113 128 159.5t90 119t96 140.5q39 32 86 104.5t73 98.5q15 13 48 56t57 59q5 4 18 12t21.5 16t11.5 19q-1 7 13.5 23t23.5 22q2 1 4 -5t8 -3t9 24.5t14 22.5q14 1 16 19t15 22q8 3 15 8.5t16 15t14 13.5q10 10 59 47.5t59 58.5 q1 2 2.5 4.5t2.5 3.5t2 3t1.5 2.5t2 1.5t2.5 1.5t3 1l4 1t4.5 1t6.5 1.5q10 6 18 17t16 15.5t25 2.5q14 -2 23 0t14 -3.5t6 -23.5z" />
<glyph unicode="W" horiz-adv-x="1492" d="M1538 926q-7 -4 -29 -33.5t-51.5 -72.5t-30.5 -44q-3 -14 -9.5 -21t-6.5 -20q-9 -9 -20 -12q-7 -1 -15 -8.5t-15.5 -20.5t-13 -23t-12 -23.5t-6.5 -14.5q-17 -58 -65 -74q-4 -1 -23.5 -24t-19.5 -25q-2 -15 -21.5 -29t-23.5 -22q-8 -16 -13.5 -21t-23.5 -8 q-6 -4 -2.5 -16.5t0.5 -16.5l-27 -41q-1 -2 -36 -31.5t-38 -33.5q-9 -14 -26.5 -41t-28 -42t-27.5 -35t-36 -34q-25 -18 -44 -26q-8 -4 -11.5 -7.5t-3 -6.5t2 -11t2.5 -14q-18 -5 -47 -28.5t-47 -27.5q-6 -2 -39 -2q-14 0 -48.5 24.5t-57.5 47.5q-20 23 -23 55q-2 16 -16 41 t-13 41q6 60 -10 113q-45 -28 -110.5 -95t-87.5 -85q-4 -3 -24 -13.5t-34.5 -22.5t-13.5 -24q0 -34 -58.5 -62.5t-93.5 -17.5q-6 1 -10 -4t-6 -6q-21 -8 -25 4q-1 1 -9 21t-15 30t-13 9q-12 0 -13 2q0 1 6 6q19 13 12 22q-5 4 -8.5 2t-9.5 -7.5t-11 -6.5q-13 79 -6 139 q2 26 21 69t22 62q-7 16 -20 -8q-16 -29 -21 -31q-2 0 -4 1q-6 6 -2.5 12t10 18.5t6.5 20.5q2 30 38 100.5t38 118.5q5 4 13 8t11.5 8t4.5 13q2 11 10.5 40.5t14 53.5t9.5 52t1 48t-15 29q-5 11 -10 13q-3 0 -6 1q-4 1 -10.5 1.5t-8.5 1t-6 2t-5 4t-2 7t-1 11.5 q11 7 20.5 21t20 24t28.5 12q8 1 20.5 4.5t17 3.5t14.5 -4q17 -13 29 -39t14 -47l-13 -43q3 -35 -4.5 -81t-16.5 -76.5t-28.5 -90t-25.5 -80.5q-3 -11 -19.5 -37t-11.5 -46q-2 -5 -15 -9.5t-23.5 -7.5t-9.5 -13t23 -28q16 -13 -2 -101.5t-12 -105.5q19 -56 92 17 q10 10 52 22t48 31q-9 0 -27.5 -7.5t-25.5 -8.5q-14 7 6.5 19.5t57.5 34.5t51 44q4 7 -6 4t-10 -4q0 1 4 4q22 17 61.5 52t74 60.5t70.5 41.5q0 -8 9.5 -9t21 2.5t23.5 -7t16 -36.5q10 -10 15.5 -22.5t6 -24.5t1 -26.5t0.5 -28.5q1 -19 12 -57.5t12 -59.5q1 -7 -1 -15.5 t-0.5 -12t9.5 -7.5l23 -14q7 -4 13.5 -5t13.5 1.5t11.5 5t13 8t11.5 7.5q11 7 16.5 25.5t18.5 27.5q38 27 93 102.5t98 114.5q30 30 53 61q10 12 73 98t109 128q21 14 37 22q9 4 11 10.5t1 13.5t2 17q6 23 21.5 45.5t41 50t34.5 39.5l155 195l47 82q14 5 24.5 23.5 t16.5 23.5q10 8 32.5 22t31.5 21q8 6 13.5 9t9 4.5t8 -0.5t6 -3.5t6.5 -7t8 -8.5q15 -13 2.5 -35.5t-33.5 -42t-41 -41t-20 -33.5q0 -5 -5.5 -16t-11.5 -21t-13.5 -22t-8.5 -13q-21 -10 -26.5 -17.5t-1.5 -11.5t-1 -12q-4 -10 -55 -75z" />
<glyph unicode="X" d="M1114 991q-12 20 -12 -4q12 -12 8 -39q-9 0 -17 2.5t-10 0t-10 -16.5q-4 -7 -34 -13q-11 -2 -10 -5q0 -2 3 -5l24 -1q7 -3 0 -7q-1 -1 -3 -2q-10 -10 -78 -52.5t-129.5 -85t-65.5 -61.5q-4 -13 -47 -53t-57 -45q-19 -4 -65 -52t-56 -69q-8 -22 7.5 -54t42.5 -68t32 -46 q12 -23 36.5 -86.5t41.5 -89.5q7 -18 7 -26.5t-4 -29t-5 -28.5q-7 -5 -17.5 -14.5t-16.5 -14.5t-14 -9t-15.5 -1.5t-14.5 11.5q3 51 -17 88q-2 2 -6 6.5t-5 6t-2 5.5t-1 10q0 12 -11.5 21t-14.5 18q-10 32 -28 62.5t-48.5 71t-40.5 55.5q-22 -18 -57.5 -56.5t-43.5 -46.5 q-56 -49 -86 -71q-12 -6 -8 -17q-4 -33 -54.5 -89t-94.5 -96.5t-41 -41.5q26 9 30 8q6 0 -21 -14q-2 -1 -5 -2q-5 0 -15.5 4t-17 4t-8.5 -8q0 -2 5 -9q13 -17 2 -17q-4 -1 -11 1q-14 3 -23.5 -10.5t-13.5 -30.5q13 -10 6 -22q-6 -11 -20 8q-9 9 -15 59q7 0 10.5 1.5t3.5 4.5 t-0.5 5.5t-2.5 8.5l-3 9q11 9 17 -6q1 -3 2 -5t2.5 -3.5t3.5 -2.5t3.5 -1.5t4.5 0t4.5 0.5t5 1t5 1.5t5 1.5t5.5 2q0 9 -13 25q-8 9 -12 3q0 -4 -4 -12q-10 0 -16 16q9 3 6.5 14.5t1.5 14.5h29q-3 11 2.5 24.5t3.5 20.5q-2 10 3 20t10.5 15t18.5 13.5t15 10.5q7 6 12 19.5 t8 17.5q7 9 26.5 24t27.5 30q9 23 63 77q25 25 49.5 54t52 63.5t43.5 52.5q3 3 14.5 13t16.5 16q6 3 4.5 26t-0.5 29q0 8 -34.5 47t-34.5 54q4 18 -5.5 37t-28.5 40.5t-24 30.5q-5 8 -13.5 33.5t-16.5 32.5q-27 24 -37 45q-1 11 -1.5 17.5t4.5 21t8 22t9 21t8 16.5 q13 25 25 13q3 -3 18 -23l17.5 -21t17.5 -21.5t14.5 -19t14.5 -21.5t11.5 -22t10.5 -26q5 -8 18.5 -25t18.5 -28q8 -16 22 -48.5t27 -59t29 -46.5q14 -16 38.5 -3.5t31.5 32.5q3 9 37 32q20 13 52 48t54 45l17 6q2 0 4.5 5t6.5 12.5t9 10.5q4 4 47 25q10 4 14.5 9.5 t7.5 13.5t7 14q13 15 71 42t68 34q5 15 10.5 22.5t18.5 14.5q6 4 31 14t43 19.5t18 17.5q51 0 52 7q0 2 -3 5h-16q1 11 9 12t17.5 -4t18.5 -8t12 0q0 2 -1 4.5t-1.5 3.5t0 2.5t2 2.5l4.5 3q4 -3 11.5 -6t12.5 -7t9 -11q-22 0 -28 -7q-4 -4 -7 -14q-5 -16 -22 -20t-17 16z M158 1016q11 17 32 5.5t23 -34.5q-11 -6 -47 -47q-29 -34 -35 -20q-1 3 -2 8q-4 43 -0.5 52.5t29.5 35.5zM1151 1053q16 8 27 12t21 5.5t13.5 -2.5t2 -15t-10.5 -29q-4 0 -10.5 10.5t-11.5 12.5q-7 3 -14 3.5t-11 0.5t-6 2z" />
<glyph unicode="Y" horiz-adv-x="1110" d="M1561 1253q-6 0 -12 0.5t-8.5 1t-5.5 -0.5h-3v-3q0 -3 1 -5t3 -8t4 -11q1 -3 -3 -5t-11 -3.5t-14.5 -2.5t-15 -1.5t-11.5 -0.5h-6q-8 0 -10.5 -8t1.5 -12q12 -9 25 -12q-6 -6 -19.5 -8.5t-17.5 -4.5q-7 -4 -13 -17.5t-24 -14.5q-3 -19 -8 -24.5t-22 -8.5q-11 16 -17 6 q-2 -4 2 -7.5t10.5 -7.5t8.5 -8q-9 1 -17.5 -5t-11.5 -7q-1 1 -4 5l-4.5 6t-4.5 1.5t-7 -4.5l16 -24q-1 0 -10.5 -3.5t-14.5 -6t-8 -7.5q-3 -13 -5.5 -16t-8 -5.5t-10.5 -10.5q-3 -3 -8 -9t-8 -8.5t-8.5 -5.5t-12.5 -4q-29 -34 -109 -106t-112 -111q-4 -4 -70.5 -58.5 t-77.5 -76.5q-2 -4 -17 -18t-32.5 -30.5t-20.5 -19.5l-172 -151q-6 -6 -21.5 -28.5t-19.5 -27.5q-29 -29 -77 -61q-17 -13 -42.5 -42t-43.5 -42q-12 -10 -37.5 -31t-42 -36.5t-27.5 -32.5q-6 -6 -17.5 -7t-15.5 -14q-5 -17 -31 -35.5t-32 -25.5q-74 -74 -100 -97 q-69 -69 -121 -82q-7 -1 -10.5 -2t-4.5 -4t-1 -5.5t0.5 -9t0.5 -11.5q-6 -1 -10.5 -3.5t-9.5 -7t-8 -6.5q-9 1 -20.5 10t-16.5 11q-6 -11 -13.5 -9t-16 8t-23.5 -3q-12 -7 4 -10q20 -5 24 -7q-2 -1 -3.5 -9.5t-2.5 -16t-3.5 -13.5t-9 -4t-16.5 15l-4 5q-4 4 -5 5.5l-4 6 t-3 7t-0.5 7t2 7.5t6.5 7t10 8q17 10 21 37q4 -1 15 -4.5t18 -3.5q0 15 -0.5 17t4 7t8.5 12q-13 7 -0.5 26t25.5 28q7 3 45.5 34.5t40.5 34.5q1 4 34 34t45 38q56 41 150.5 140t130.5 130q3 3 21 10.5t20 22.5q30 24 51 45q8 10 23.5 18.5t21.5 14.5q-16 0 -26.5 23.5 t-18.5 27.5t-7 14.5t-1 20.5q-64 179 -92 233q-29 54 -55 74q-39 31 -97 103q-13 17 -7 31t30 18q14 7 6.5 26t-27.5 25q-44 -31 -51 -2q-5 19 29 29q21 7 77 -31t70 -58q14 -18 17 -38q9 -2 17 -10t10.5 -13t9.5 -18q10 -21 38 -63.5t39 -67.5q12 -28 52 -160q1 -5 6 -20.5 t5.5 -18.5t2.5 -18.5t-2 -20.5l12 -16q1 -5 -2 -12.5t-4 -12t2 -8.5q6 3 11.5 8t9 9t10 11.5t8.5 10.5q7 7 31 21.5t32 27.5q6 10 66 68.5t70 64.5q22 15 65 51.5t53 44.5q22 18 91.5 91.5t117.5 99.5q15 6 64.5 57t68.5 51q2 3 1.5 12.5t2.5 12.5q9 3 39 23t33 26 q5 9 16.5 13t16.5 12q20 16 25 11t9.5 -18.5t10.5 -13.5q10 11 5.5 23t-3.5 26t16 19q5 1 11 1.5t8.5 1.5t5.5 4.5t6 10.5t6 9t9 1t10 0v-6v-4v-2.5t1.5 -2.5t4 -2t6.5 -3q8 11 2 20q-3 3 -11 5.5t-7 7.5l73 24q-4 37 21 36q20 0 29 -16q12 -18 -19 -24q4 7 1.5 9t-17.5 6 q-1 0 -2 0.5t-2 0.5q-5 2 -5 -4q0 -2 2 -9q2 -15 1 -21q-2 -5 -4.5 -7t-5.5 -2.5t-6.5 0.5t-6 2t-4.5 1t-2.5 -0.5t0.5 -4.5q9 -26 8.5 -32t-9.5 -8t-11 -5zM1645 1393q14 5 26.5 5.5t19.5 -5t3 -17.5q-9 -3 -16.5 -7t-11 -5t-6.5 -3t-4 1t-2 4.5t-4 10.5t-5 16z" />
<glyph unicode="Z" horiz-adv-x="1341" d="M1485 131q2 -2 13 -7q22 -9 22 -13q0 -5 -27 -5q-12 0 -28 11t-25 2t-14 -29t-17 -22q-20 -4 -21 0q0 2 16 17q4 4 3 5q-11 13 -17 16.5t-7.5 -2t-2 -13t-2.5 -17t-6 -13.5q-3 -3 -7.5 2.5t-10 11.5t-8.5 5q-22 -5 -38 -21.5t-26 -21.5q-8 -5 -18.5 -0.5t-18.5 -3.5 q-18 -15 -79.5 -19.5t-75.5 -7.5q-11 -3 -19.5 -12t-21.5 -10l-119 -11q-201 -14 -281 -14q-26 0 -98 4t-111 2q-26 -1 -52.5 5t-61.5 18t-50 16q-9 3 -30.5 3.5t-34.5 10.5q-9 9 -44 25.5t-66 40t-42 57.5q-10 44 -4 82q4 21 15 41t21.5 31.5t31 30.5t29.5 28q14 15 49 66 q17 24 72 75t81 85q12 14 29.5 30.5t31 27t37.5 28t33 24.5q22 18 66 49t79 59.5t60 61.5q7 9 38 28.5t54.5 37.5t20.5 28q10 2 22 14t21 19t16 0q2 -2 6.5 -8t7 -7.5t8 -1t11.5 6.5q10 12 8 19.5t-14 7.5q-7 12 12.5 36t50 56t41.5 53q30 62 -39 84q-8 3 -27.5 3.5 t-29.5 4.5q-4 2 -5 6.5t-1 9t-0.5 7.5t-6 1.5t-16.5 -8.5q-2 -1 0 -5.5t5 -10.5l4 -8q-23 -4 -29 -1t-4.5 5.5t8 9t8.5 10.5q-163 -14 -276 -43q-10 -3 -31 0.5t-29 2.5q-10 0 -19 -10.5t-20 -12.5q-11 -3 -32 -6t-31 -6q-4 14 -10.5 14.5t-18.5 -8.5q-13 -5 -15 -5.5 t-7.5 7t-10.5 10.5q-10 6 -23.5 4.5t-20 -3.5t-11.5 7q-8 19 6 35t40.5 26.5t52 17.5t46.5 11q8 1 11 2q43 10 123.5 22t115.5 19q97 19 156 19q42 0 94 -10q54 -13 86.5 -27.5t57.5 -46.5q22 -27 22 -80q0 -56 -22 -109q-3 -7 -14.5 -14.5t-14.5 -11.5q-2 -4 -7 -16.5 t-9 -18.5l-64 -47q-8 -8 -21 -22.5t-22.5 -25t-24 -24t-23 -19t-20.5 -10t-18 2.5q-6 4 2 15t2 13q-17 12 -29.5 -6.5t-3.5 -30.5q8 -10 2.5 -28t-18.5 -25q-16 -9 -81.5 -65.5t-80.5 -67.5q-28 -18 -61 -46.5t-77.5 -73t-59.5 -58.5q-38 -31 -54 -53q-46 -64 -137 -140 q-7 -7 -28 -26t-33.5 -33t-20.5 -31q-6 -12 -6.5 -23t2.5 -18.5t12 -16.5t16 -14t20 -13.5t18 -12.5q1 -1 21 -3.5t44 -5t29 -3.5q9 -2 36.5 -9t39.5 -9.5t34 -7t40 -6t38 -1.5q140 -4 215 -4q180 0 310 10q15 1 41 7t36 7q3 1 29 2t49.5 2.5t26.5 4.5q14 20 20 14 q16 -16 31 -14q9 2 26.5 8.5t29 10.5t29.5 6t28 -5q7 -3 46 4t46 -4zM909 975q-26 -32 -4 -31q23 1 45 23q2 20 -5.5 25t-17.5 -1t-18 -16z" />
<glyph unicode="a" horiz-adv-x="770" d="M727 41q-2 -4 -9.5 1t-10.5 3q-8 -6 -3 -20t-6 -15l-34 -20q-47 -34 -82 -23q-38 12 -65.5 45.5t-35.5 75.5q-4 10 -2.5 45t0.5 45q0 9 3.5 15.5t7 10t11.5 9.5t13 10q3 2 11.5 8.5t12.5 10t11 10t10 11.5t5.5 11t1 11.5t-6.5 11.5q-8 10 -11.5 11.5t-4 0t-1.5 -12.5 q-1 -8 -1.5 -13t-3 -14t-5.5 -17q-1 -4 -9 2t-18.5 11.5t-25.5 -1.5q-4 -3 -11 -6.5t-8.5 -5.5t-0.5 -8q2 -21 -82 -84q-4 -3 -28.5 -22.5t-39.5 -26.5q-13 -5 -23.5 1t-17.5 1l-10 -8t-7 -6t-5.5 -3t-9.5 0q-47 5 -47 -8q0 -5 6 -14q4 -5 8.5 1t6.5 11.5t7 -2.5 q13 -9 10 -18q4 0 11.5 1.5t12 0.5t7.5 -5q4 -7 -5.5 -15.5t-32 -17t-33.5 -12.5t-29 -10q-36 -14 -80 0q-14 5 -26.5 28.5t-18.5 29.5q-13 11 -13.5 52.5t5.5 57.5q2 7 7.5 27t8 28t7.5 23t10 27t12 24l59 107q19 27 49 57q1 2 7 8.5t8 8.5t7 7.5t8 7.5t8.5 6t9.5 5l10 2.5 t12 1.5q8 5 16 22.5t25 20.5q0 -3 10 1t21 9.5t12 5.5q7 5 15.5 5.5t19.5 -3t17.5 -6t18.5 -9t13 -7.5q18 -9 29 -17.5t21 -21t8.5 -29t-15.5 -36.5q-1 -1 -4.5 -5.5t-6.5 -9t-6.5 -12t-5.5 -16.5q-5 -23 -17 -25q-9 -2 -13 14q16 0 19 5t1 20q-1 9 -5 0q-9 -16 -15 -12 q-12 8 -18.5 32t-8.5 27q-11 17 -45 0q-38 -22 -41 -23q-21 31 -33 21q-4 -3 18 -21q15 -13 11 -16q-36 -11 -55.5 -37.5t-36 -65t-35.5 -59.5q-21 -26 -33 -90q-15 -60 -5 -71q10 -9 34 2q6 3 19 6t18 6q68 36 159 131q12 12 33.5 41t36.5 43q8 7 20 16.5t17.5 15 t11.5 15.5t10 23q13 19 45.5 40.5t42.5 30.5q3 3 9 8.5t9 8.5t8.5 7t9.5 6t10.5 4t13.5 3q15 3 26 -16.5t15 -40.5q2 -14 -1 -26t-9.5 -27t-8.5 -23q-12 -33 -31 -71.5t-30.5 -69t-16.5 -66.5q-3 -4 -0.5 -16.5t4 -18.5t6 -18.5t5.5 -16.5q18 -59 59 -57q6 0 31.5 4.5 t38.5 3t8 -13.5zM475 414q-3 -4 -10 -19q-8 -14 -10 -14q-6 15 -3.5 24t15.5 21q6 -4 6 -5q1 -3 2 -7zM301 92q13 13 13.5 11.5t-1.5 -19.5q-2 -16 -8 -6z" />
<glyph unicode="b" horiz-adv-x="1001" d="M643 1360q-9 -3 -66.5 -12.5t-58.5 -8.5q-6 10 21 49t49 64q26 29 63 29q0 -1 0.5 -1.5t2 -3.5t3 -4t3.5 -2.5t4 0.5q3 2 7.5 6.5t7.5 8t5 2.5q13 -2 6 -39q-10 -37 -47 -88zM838 414q36 -59 36 -117q0 -51 -28 -121q-2 -6 -5 -10t-5 -5.5t-7.5 -4t-9.5 -4.5 q-7 -3 -11.5 -16.5t-8.5 -18.5q-5 -5 -18 -9t-17 -12q-7 -13 -25 -19t-24 -11q-48 -30 -137 -54q-67 -16 -152 -26q-2 0 -13.5 -2.5t-21.5 -4t-23.5 -3.5t-25 -3t-22 -1t-17 2t-8.5 6q6 3 21 10t23.5 11.5t18.5 13t15 18.5l-11 1q-11 1 -18.5 0.5t-9.5 -3.5q-9 -10 -29 -15 t-48.5 -6.5t-37.5 -3.5q-46 -6 -83 10.5t-50 57.5l14 12q-17 9 -24 13t-15.5 14.5t-7.5 23.5q0 10 -3 37.5t-1 46.5q3 29 19 68t36 59q3 3 17.5 34.5t30.5 53.5t30 10q9 -8 7 -9t-8.5 -7.5t-6.5 -15.5q0 -11 -2 -13.5t-6 -2.5t-6 -5q-3 -5 3.5 -12t2.5 -16q-4 -6 -6 -14 t-3.5 -18.5t-2.5 -15.5q0 -20 -15 -30q-5 -3 -5 -8t2.5 -12t2.5 -9q1 -5 6.5 -25.5t5 -32.5t-9.5 -18q-2 -2 -9 2.5t-11 1.5q-5 -9 -4.5 -11t8.5 -11.5t12 -18.5q5 -13 17 -21t29.5 -15.5t25.5 -12.5q78 -22 168 -22q26 0 88 4q7 1 28 -3t34.5 -2t15.5 15l-39 12 q1 3 27.5 11t56.5 17t35 11q10 5 38.5 16t51.5 21.5t32 18.5q15 12 27.5 52t7.5 60q-20 64 -61 105q-32 33 -78.5 62t-77.5 43t-92 40q-50 23 -131 23q-12 0 -70 -5q-52 -8 -123 35q-20 12 -22.5 20t2.5 32q10 78 45 139q56 116 147 235q26 32 89 143t104 140 q6 -12 23.5 -12.5t43 6t31.5 6.5q-1 -9 -11 -22t-24 -27t-18 -19q-30 -40 -77 -129t-77 -131q-26 -33 -54 -78.5t-62 -108t-47 -85.5q-5 -9 -8 -16t-4.5 -16t4 -11t18.5 0q47 17 141 -6q76 -15 141 -41q109 -45 183.5 -93t122.5 -122zM582 33q14 14 -11 32q-22 16 -29 8 q-1 -1 -1 -3q-4 -10 14.5 -27.5t26.5 -9.5zM205 516q18 0 21.5 -3t-3.5 -15q5 -15 -5 -15q-12 0 -21 15q-8 5 -4.5 12t12.5 6z" />
<glyph unicode="c" horiz-adv-x="641" d="M545 160q8 0 16.5 -13t7.5 -26q0 -3 -10 -2t-10 -6q-29 -17 -31 -19q-3 -3 -60 -22.5t-67 -20.5q-9 -1 -14.5 -12t-14.5 -14q-31 -13 -45 -15q-7 13 -16 4l8 -8q-8 -1 -28 -6t-37 -2q-12 3 -42 -3t-42 3q-52 32 -71 51q-10 11 -23 27q-22 26 -27 47q0 4 -0.5 9t-1 6.5 t-3 5t-7.5 8.5q-4 4 1.5 14.5t2.5 13.5q-6 7 -17 10.5t-11.5 6.5t5.5 24q3 6 9 -8l3 -6q3 -4 10 0.5t9 9.5q8 8 -13 16q-16 6 -16 9q9 27 13 59q2 23 29.5 89t49.5 89q3 3 13 8.5t12 10.5q-8 11 0 24q62 67 106 90q27 14 92 34.5t105 19.5q12 -1 26.5 -12t28.5 -11 q24 0 35 -16q3 -4 2 -12t2 -13q14 -4 17 -8q5 -9 -1 -26.5t-3 -24.5q9 -28 2 -41.5t-33 -24.5q-7 -4 -13.5 -11.5t-3.5 -12.5t7.5 -8.5t8 -4t6 -1.5t1.5 -3.5t-6 -7.5q-2 -3 -4 -8l-3 -7.5t-3 -4.5t-5.5 -1.5t-9.5 3.5q-2 1 -8.5 3.5t-9.5 4.5t-2 6q1 5 6 8.5t10 5t8 4.5 t0 7q-11 26 -8.5 33.5t19.5 19.5q7 4 18 14t10 14q-5 12 -6.5 8.5t-7 -11t-12.5 -5.5q-9 3 -12.5 10t-3 12.5t-6 8.5t-21.5 0q-3 1 -3 6t2.5 16.5t2.5 14.5q-22 -3 -90 -31q-15 -6 -35 -26t-33 -25q-5 -2 -11.5 -3t-14 -1.5t-12 2t-3.5 8.5q0 4 4.5 15t6.5 17t-3 9 q-13 3 -28 -12q-4 -5 4 -18t4 -19q-6 -9 -7.5 -15.5t-3 -10.5t-10.5 -11q-4 -3 -10 3.5t-10 4.5q-3 -3 -1 -5.5t6 -7t3 -7.5q-5 -15 -34 -56t-32 -55q-34 -140 -20 -170q29 -59 69 -77.5t103 -6.5q24 4 104 27l74 16q4 1 21.5 7t25.5 3l8 -8q1 2 3 9t4 10.5t6 3.5zM659 168 q-20 0 -16 25q17 0 19 -3t-3 -22zM598 180q20 0 22 -2t-2 -22q-16 0 -20 24zM573 152q2 1 5 10q3 13 6 14q4 1 10 -19q2 -6 4 -16q-4 -2 -3.5 -5t-0.5 -4.5t-8 -2.5q-5 4 -10 4q-3 -1 -3 4v9v6z" />
<glyph unicode="d" horiz-adv-x="1120" d="M1503 1516q-5 -13 -35 -58q-5 -11 -25.5 -36t-25.5 -40q-9 -30 -23 -57.5t-25 -44t-42 -58t-51 -69.5q-19 -27 -50.5 -83t-45.5 -77q-9 -14 -29 -55t-40.5 -73.5t-41.5 -45.5q-4 -2 -4 -5.5t1.5 -9.5t0.5 -11q-4 -25 -14.5 -55t-21 -50.5t-28.5 -54.5t-26 -49 q-30 -61 -48 -147t-18 -156q0 -11 -3.5 -42t-1.5 -52.5t14 -39.5q7 -9 27.5 -24.5t30 -29t1.5 -27.5q-9 -16 -29 -17t-37 10q-34 23 -55 27q-28 19 -51 96q-10 45 -10 84q0 86 53 260q0 1 6.5 21t11 35.5t9 35t3.5 30.5t-8 11q-8 -14 -48 -43t-38 -55q0 -6 -32 -43.5 t-64 -71.5l-33 -34q-6 -6 -26.5 -16t-28.5 -23q-29 -39 -57 -39q-6 0 5 25q4 10 0 9q-5 -2 -26 -22q-6 -4 4 -18.5t9 -18.5q-2 -14 -15 -20.5t-24 6.5q-18 26 -29 20q-11 -5 6 -26q4 -6 9 -11t7 -6t2 -4t-2 -5t-8 -7q-7 -5 -24.5 -13.5t-24.5 -17.5q-8 20 -23 20 q-13 0 -4 -18q3 -6 9 -14q3 -5 2 -6t-6 1h-4.5t-4 0.5t-4.5 0t-4 -1.5l-4 -2t-8 -3t-8.5 -5t0.5 -7q18 -24 -11 -62.5t-68 -66.5t-54 -30q-19 -3 -71 -32.5t-83 -23.5q-14 2 -38.5 19.5t-24.5 32.5q0 10 -12.5 26t-12.5 19q0 34 23.5 93t50.5 103q6 11 30 53.5t36.5 61 t34.5 48t44 44t45 17.5q3 1 -6 -12t-18.5 -28t-6.5 -18q11 -9 22 1t19.5 24.5t10.5 15.5q0 -8 6 -20t11.5 -20.5t4 -20t-13.5 -21.5q-6 -4 -32.5 -20t-38.5 -29t-13 -31q-1 -11 -9.5 -30.5t-19.5 -40.5t-14 -27q-5 -10 -15 -26t-17.5 -29t-13.5 -27t-5.5 -27.5t8.5 -23.5 q5 -7 20 1t34 23.5t24 18.5q8 3 21 7.5t23 9t19 10.5q5 3 12.5 8.5t10 6.5t10 3t12.5 -2q2 0 10 -6t13.5 -6t15.5 6q11 11 -10 39q-7 10 -7 5q-3 -15 -5 -18q-13 -19 -20 6q-6 28 3 39q5 3 17.5 13t19.5 12q4 1 4 -4q0 -3 -1 -12q-2 -17 1 -21q5 -4 8 -5t6.5 5t5.5 11.5 t5.5 14t5.5 13.5q11 25 39 45q2 2 9 6.5t9 6.5t7.5 6t8 6.5l6.5 6.5t6.5 7.5t5.5 8t5 9.5q6 11 21 21t26 15t17.5 15.5t-4.5 22.5q-3 5 -12.5 13.5t-12.5 17.5q0 1 -5 14t-3 19q1 3 24 3.5t25 2.5q5 6 3.5 19t-7.5 14q-4 1 -14 0t-16.5 1t-10.5 9q-8 17 -40 22 q-27 4 -26 -11v-3q-4 -4 -14 4t-20.5 13.5t-26.5 -5.5q-9 -7 18 -20q16 -9 17 -12l-23 -35q-6 -18 -18 3q-13 22 -17 23q-12 4 -26 6q-9 1 -10 4t4 18q3 8 4 13q4 2 27 15t30 16.5t25 11.5t32.5 11t30.5 4q47 5 62 0q67 -17 57 -140l63 66q16 13 30.5 27.5t30 33.5t25.5 32 t28 37t26 34q14 16 43.5 55.5t46.5 58.5q7 6 18 13t21 18q15 16 35 50.5t34 50.5q139 163 191 280q12 19 20.5 44.5t15 35.5t21.5 10q1 0 0 -9t4 -9q28 -3 41 -3t14.5 2t-3.5 6t-14.5 9.5t-17.5 12t-11.5 13.5t1.5 15q7 10 22 38.5t29.5 51.5t26.5 31q2 1 6.5 3.5t6 3.5 l4.5 3t4 3.5t2 4.5t1.5 6.5t0.5 8.5q0 4 2 6.5t6.5 6.5t5.5 5q9 8 33 11t31 6q25 10 48.5 -8.5t16.5 -34.5zM438 242q3 1 15.5 6t18.5 8.5t3 7.5q-8 14 -21.5 23.5t-21.5 5.5q-4 -7 -1.5 -25t7.5 -26zM520 301q0 22 -15 33q-10 4 -16 -4t7.5 -19.5t23.5 -9.5z" />
<glyph unicode="e" horiz-adv-x="677" d="M653 125q12 9 19 -14q5 -19 -2 -31q-2 0 -9 7.5t-12 4.5q-3 -3 1.5 -10t2.5 -10q-3 -4 -11.5 3.5t-12.5 4.5q-6 -5 -7.5 -10.5t-1 -8.5t-1 -6t-7.5 -4q-10 -2 -17 -5q-3 -2 -11 1q-4 1 -6 2q-3 2 -7 -2.5t-8 -3.5q-3 1 -9.5 9.5t-10.5 6.5q-6 -3 -16.5 -14t-18.5 -12 q-11 -2 -17.5 -9t-15.5 -6q-6 1 -10.5 2t-5.5 2t-3.5 0.5t-6.5 -2.5q-24 -12 -66 -16q-29 -4 -72 5t-67 17.5t-90 32.5q-4 2 -20.5 9t-23.5 10.5t-19 10.5t-21 15t-17 17q-25 34 -40.5 77.5t-4.5 75.5q5 15 20 47.5t19 47.5q8 34 16 47q7 10 22.5 10.5t20.5 3.5q11 5 23 22 t21 23q4 3 13.5 8t15.5 10.5t7 12.5q1 6 -20.5 25t-11.5 36q4 6 9.5 10t9.5 5.5t13 4t13 3.5q4 4 9.5 1t8.5 -3.5t7.5 -7t6.5 -9t6 -9.5t5 -9q10 -14 11 -25t-1.5 -16.5t-12.5 -18.5t-16 -22q-3 -6 -15.5 -37.5t-25.5 -42.5q-26 -23 -30 -43q-8 -28 -2 -34.5t32 3.5 q69 34 128 94t96 134q4 7 8 15t11.5 22.5t13 27.5t9.5 25.5t3.5 20t-5.5 8.5q-63 11 -90 -29q-3 -4 -8 -16.5t-10 -18.5t-12 -2q-15 5 -54.5 -0.5t-60.5 12.5q-7 5 3.5 19.5t28 27.5t27.5 15l76 80q6 2 22.5 12t26.5 12q10 3 26 -1.5t23 -2.5q21 6 24.5 4.5t18.5 -16.5 l50 -45q9 -8 2 -44.5t2 -37.5q14 -4 9.5 -27t-13 -44t-15.5 -32q-25 -48 -112 -159q-3 -5 -7.5 -16.5t-9.5 -19t-12 -7.5q-24 0 -150 -111q-8 -7 -26.5 -11t-24.5 -7q-2 -1 -9.5 -4.5t-9.5 -4.5t-5.5 -4.5t-2.5 -6t4 -6.5t11 -9l53 -39q43 -29 144 -29l63 -2q43 0 72 10 q49 17 100 17q15 0 20 -2.5t17 -14.5q3 -3 5 0t4.5 10.5t6.5 10.5zM424 494q-1 -2 -6.5 -6t-8 -7.5t0.5 -7.5q6 -8 9.5 -10t5.5 2t4 9.5t6 12.5t9 11q28 16 35 24q3 3 10 10.5t10.5 11.5t9.5 11t8.5 11.5t4.5 10.5t1.5 11t-3.5 10q-13 21 -49 -45q-1 -2 -3 -5q-5 -10 -7 -13 q-18 -26 -23 -21q-4 4 -7.5 -1t-4.5 -12zM690 121q4 -1 12 -3.5t10.5 -3.5t7 -3t4.5 -3.5t0.5 -4t-2.5 -5t-8 -6t-12 -8.5q-14 11 -16.5 15.5t4.5 21.5z" />
<glyph unicode="f" horiz-adv-x="692" d="M1149 1544q35 -68 35 -98q0 -17 -17.5 -40t-17.5 -38q0 -3 5.5 -1.5t6.5 -2.5q3 -11 -3 -13t-13 0t-8 -3q0 -3 3.5 -5t7 -3.5t5.5 -3.5t0 -5q-2 -2 -4 -2t-4.5 1t-4.5 2.5t-3 0.5t0 -4q1 -5 5 -8t5 -3.5t-2 -4.5q-32 -24 -28 12q1 17 9 43q1 3 2.5 11.5t4.5 13t8 6.5 t10.5 9t5.5 11q-4 24 -16 5q-11 -15 -13 -15q-3 3 0 45q2 33 -8 33q-3 0 -8 -4q-7 -6 -8.5 -17t1.5 -23.5t6.5 -23.5t3 -18.5t-6.5 -7.5q-8 0 -12 11.5t-6 28.5t-5 23q-5 9 -4.5 17.5t-3.5 21.5q-6 19 -21 26.5t-34 -1.5q-19 -8 -72 -21q-51 -16 -69 -39q-2 -3 2 -7.5 t2 -6.5q-4 -4 -16.5 -3.5t-16.5 -4.5q-7 -4 -9.5 -2t-8.5 10t-11 10q-15 7 -23 0t-6.5 -20t11.5 -23l24 8q7 -6 7.5 -16.5t-2 -19.5t-8 -23.5t-7.5 -20.5q-12 -31 -47.5 -86t-48.5 -81l-14 -28l-23.5 -47t-25.5 -48.5t-27 -43.5t-21 -22q-10 -4 -17 -21t-12.5 -40.5 t-7.5 -28.5q-7 -27 -17.5 -49t-33.5 -58.5t-28 -44.5l-31 -63q-9 -23 -10.5 -31t5 -15.5t27.5 -15.5q22 -9 48.5 -17t43.5 -12.5t49.5 -12.5t45.5 -11q8 -2 26 -11t31 -11q12 -2 21.5 -5.5t23 -10.5t21.5 -11q6 -3 16.5 -4t18 -1t13 -3.5t5.5 -11.5q0 -16 -21.5 -27.5 t-40.5 -9.5q-9 1 -24 8t-23 8q-21 1 -58.5 -5t-51.5 -7q-25 -1 -54.5 14t-48.5 15q-27 -1 -75 10.5t-66 13.5q-1 -16 -6 -33.5t-10 -28.5t-15 -30.5t-14 -28.5q-9 -19 -31 -57.5t-32 -61.5q-21 -47 -59 -127t-68 -147.5t-54 -130.5q-13 -31 -40.5 -85.5t-34.5 -70.5 q-5 -11 -23.5 -46t-28.5 -61.5t-10 -47.5t-20.5 -63.5t-20.5 -59.5q0 -6 3 -3.5t7 6t7 -2.5q7 -13 9 -17t2 -13.5t-7 -18.5q-17 -28 -58 -39q-15 -4 -28.5 21t-18.5 46l-6 45q2 1 8 5t8.5 5.5t7 5.5t3.5 6t-2 7q-5 3 -8 3t-10.5 -3t-10.5 -4q0 18 3.5 37.5t7.5 34t13.5 37 t14.5 32.5t17.5 34.5t15.5 31.5q26 57 26 98q0 16 7 31.5t20 34.5t18 28q2 4 13 30t22 34q8 6 9.5 10.5t1.5 11t3 13.5q26 63 76 155q19 43 137 324q5 14 20.5 35.5t20.5 33.5q6 14 6.5 20t-4 9t-18.5 6q-18 5 -41 15q-48 14 -61 34q-12 15 -30.5 47.5t-12.5 38.5 q-34 0 -1 33q29 29 50 33q8 2 5 -6q0 -1 -1 -2q16 0 19 -2t4.5 -9t9.5 -14q3 -1 10 -2t10 -2t8.5 -2.5t9.5 -4.5t9 -7q44 -38 94 -43q32 83 108 227q24 46 62.5 129.5t74 150.5t76.5 122q15 21 39 36q8 5 10.5 8.5t1.5 8.5t1 14q5 32 39 66q13 13 49 58t59 65t51 26 q8 2 11 5t2.5 6t3 7.5t12.5 8.5q60 27 100 16q3 -1 20.5 -3t20.5 -7q9 -19 15 -23q6 -1 10.5 -2t8.5 -3.5t7 -3.5t6 -4.5t4.5 -5t5 -7t4 -7t4.5 -9t5 -9.5zM1120 1516q17 10 2 20q-10 6 -18.5 -3t-3.5 -17q5 -11 20 0zM881 1409q0 -39 -15 -52q-13 -11 -18 16q-2 12 -2 28 q0 14 17 19q17 4 18 -11zM1145 1272q12 -12 -2 -38q-8 -10 -10 -3q-1 6 -4 22q-7 29 -2.5 31t18.5 -12zM1124 1186q-4 8 -4 12q0 16 10 15q11 -2 10 -14l-3 -9q-1 -2 -0.5 -4t1 -4.5t0 -4t-2.5 -1.5q-6 0 -11 10zM850 475q14 14 20 8q4 -4 1 -11.5t-9 -10.5t-12 2q-4 5 -4 6 t4 6z" />
<glyph unicode="g" horiz-adv-x="714" d="M612 -147l-4 -82q1 -20 -9 -58t1 -61q5 -28 5.5 -56.5t-7.5 -75t-17 -86t-23 -90t-25 -87.5t-23 -79l-18 -63q-7 -38 -54.5 -113.5t-81.5 -103.5q-5 -5 -21.5 -14.5t-23.5 -22.5q-15 -25 -59.5 -48.5t-58.5 -37.5q-2 -2 -3 1q0 2 -1 3t-3 0q-1 0 -27 -13t-28 -13 q-42 -12 -61 -6q2 -2 2 -7q-2 -4 -8.5 1t-16 12t-16.5 6q-42 -4 -66 -16q-10 -3 -37 2q-5 2 -18 4q-20 3 -19 8q0 3 3 6q6 4 16.5 2t15.5 -4q16 -11 29 8q2 2 -11 4q-8 1 -28 2q-29 2 -35 4l-45 27q-8 4 -5.5 10t-2.5 13q-23 25 -32.5 53t3.5 45q3 3 1.5 13t-3 16t3.5 8 q21 0 19 4q-3 8 -11.5 15t-11.5 10t0 14q2 5 -0.5 18t2.5 17q4 4 15.5 -13t15.5 -28q3 -8 2 -14.5t8 -18.5q7 -10 17 -49q2 -8 -1.5 -14.5t-7.5 -9.5t-1.5 -6.5t14.5 -8.5q7 -3 19.5 -14t23 -18t18.5 -3q11 2 17.5 1t18 -4.5t15.5 -4.5q20 -4 43.5 0t52.5 13t42 11 q65 11 130.5 80.5t108.5 145.5q73 143 107 311q7 29 12 79.5t8 67.5q10 55 10 138q0 73 7 139q1 22 -5 87.5t-6 70.5q-1 17 11 122t2 140q-4 7 0 42t4 42q-6 0 -26.5 -17.5t-38 -34.5t-17.5 -16q3 -8 -50.5 -67.5t-72.5 -65.5q-10 -3 -36.5 -16t-54 -26t-57 -23.5t-53 -8.5 t-33.5 19q-10 13 -15.5 22t-9 20.5t-2.5 23.5t7 26q38 84 76 143q1 1 34 55.5t55.5 86t39.5 42.5q4 3 21 11t24 16q1 2 14 17.5t18.5 21.5t19 20t22.5 19t21.5 10.5t24.5 4t23 -8.5q15 -5 36 -28.5t38 -28.5q6 -1 20 2t25 5t20 -5.5t9 -26.5q0 -9 9.5 -17t8.5 -16 q-10 -39 -10 -92q0 -42 2 -65q6 -86 6 -142l-2 -116q0 -121 16 -217zM434 424q11 32 -3.5 41.5t-49.5 9.5q-19 0 -31.5 -12t-26 -38t-18.5 -34q-13 -19 -49.5 -63t-57.5 -78.5t-30 -73.5q30 0 64.5 11t46.5 32q3 3 25 36.5t44.5 64t30.5 34.5q11 9 30.5 32.5t24.5 37.5z M-164 -905q20 1 11 -24t-25 -31q-7 -2 -12 2q-7 9 3.5 30t22.5 23zM102 -1239q3 4 8 5t5 5q-2 3 -15 2.5t-28.5 -2.5t-16.5 -4q-4 -9 12 -12q25 -3 35 6zM-168 -895q-2 -2 -6 -7.5t-6 -7t-4 2.5t-2 16q3 13 14 9q9 -6 4 -13zM-164 -852q0 -18 -8 -18q-6 2 -4.5 14.5 t6.5 15.5q6 0 6 -12zM-2 -1237q-7 6 -14.5 8t-12 0.5t-4.5 -4.5q0 -6 22 -7q9 0 9 3z" />
<glyph unicode="h" horiz-adv-x="976" d="M1014 -111q9 -9 10 -27t-8 -26q-4 -3 -8 4t-7 4q-5 -5 -12.5 -10.5t-11.5 -10t-6 -11.5q-3 -9 -18 -19.5t-36 -21t-26 -13.5q-39 -22 -78 -22q-40 0 -73 23t-46 65q-9 28 -18 63t-14.5 60t-14 68t-12.5 63q-11 61 -31 108q-2 4 -7.5 16t-8.5 17t-8.5 12.5t-11.5 10.5 t-13 4q-16 1 -47.5 -8.5t-36.5 -10.5q-43 -10 -134 -44.5t-147 -41.5q-30 -3 -65 21q-13 9 -26 13.5t-17.5 7t-8.5 14.5t-7 41q-3 20 -3 38.5t3 38t5.5 31t8.5 35t8 33.5q8 48 43.5 124t73.5 121q26 31 72.5 119.5t74.5 120.5q25 25 75.5 115t86.5 114q21 1 21 7v10v8.5 t0.5 6.5t2.5 6.5t5 6t8 7.5q9 6 15 27t12 28q41 53 65 31q8 -7 0 -12.5t-21.5 -14t-15.5 -18.5q-11 -34 -8 -70q3 -43 -25 -78q-20 -27 -52.5 -81.5t-63.5 -96.5q-21 -28 -58.5 -107.5t-74.5 -128.5q-14 -18 -41.5 -83t-61.5 -111q-12 -18 -35 -104.5t-22 -110.5 q80 2 211 37q14 4 50.5 19.5t64 22.5t51.5 3q75 -13 97 -31q9 -8 13 -18q2 -4 32 -52t34 -69q4 -27 22.5 -94.5t20.5 -106.5q0 -25 1.5 -40t7 -35t20.5 -29t38 -7q12 1 24.5 3.5t28.5 7t25 6.5q10 1 14.5 3t6 3.5t6.5 6t12 9.5q10 7 15 -4t20 -8l8 5q8 4 16 7t11 0z" />
<glyph unicode="i" horiz-adv-x="423" d="M287 672q0 -2 1 -2.5t3 0l4 1t4 1.5t4 0q2 -2 1.5 -10.5t-6 -19.5t-11.5 -15q-4 -3 1.5 -10t2.5 -11t-12.5 -11t-15 -12.5t-1.5 -9.5q2 -2 6.5 0t7 3.5t3.5 -3.5q0 -23 -8.5 -49.5t-17 -42t-27 -46.5t-23.5 -40q-26 -50 -33 -84q-4 -13 -9.5 -25t-14.5 -27.5t-15 -27.5 q-6 -13 -16.5 -49.5t-23.5 -62.5t-34 -37q-12 -5 -25.5 13t-17.5 34q-16 51 27 139q13 28 39.5 88t48 103t45.5 80q20 27 27 57t3.5 44.5t0.5 25.5q2 4 5.5 21.5t10.5 25.5q17 22 49 4q10 -5 14 -10t4.5 -8.5t-0.5 -12.5t-1 -14zM737 1452q11 -7 15.5 -19.5t9.5 -15.5 q23 -14 8 -41q-11 -13 -16.5 -8.5t-16.5 14t-20 7.5q-5 -1 -6 -6t-6 -3q-3 2 -7.5 12.5t-11.5 12.5q-4 1 -9.5 -2.5t-8.5 -1.5q-5 3 -6.5 10.5t2.5 9.5q3 1 7.5 -1t6.5 -3.5t4 0.5q3 4 2.5 16t-6.5 15t-12.5 -6t-10.5 -10q-5 -1 -10 7t-8 12.5t-10 -3.5l-12 -12q-5 -7 1 -9 q3 -1 14 -0.5t13 -1.5q13 -11 8.5 -23.5t-16.5 -17.5l-33 -8q-19 -8 -24 -23.5t-11 -21.5q-2 -2 1 -14t-2 -11q-2 0 -5 1q-10 4 -10 12.5t4.5 19t3.5 15.5q-7 97 39 131q34 22 70 2q13 -8 38 -20t31 -15zM590 1280q6 3 12 1t6 -9q-8 -17 -14 -17q-8 2 -11 11t7 14zM618 1268 q9 7 11 5t2 -13t-23 -5q2 1 5 6t5 7z" />
<glyph unicode="j" horiz-adv-x="630" d="M594 1620q30 -48 6 -72q-3 -3 -6.5 -4.5t-8.5 -1.5t-8 0.5t-8.5 2t-7.5 2.5q-11 4 -13.5 3t1.5 -12q2 -3 5 -3t4.5 1t2.5 -2q-3 -12 -24.5 -18.5t-44.5 0.5q-5 2 -11 5.5t-10 5.5t-8 2.5t-7.5 -2t-6.5 -9.5q-1 -2 -4 -7.5t-5 -8.5t-5.5 -8t-5.5 -4.5t-5 1.5q-3 3 -0.5 22 t0.5 21q-20 27 29 65q105 77 141 21zM381 590q14 -215 14 -271q0 -154 -35 -278q-3 -14 -25.5 -90.5t-27.5 -100.5q0 -18 -41 -100q-4 -10 -10 -16.5t-6.5 -9t0.5 -19.5q-1 -3 -19 -33q-60 -76 -122 -207q-3 -9 -25.5 -38.5t-24.5 -47.5q-2 -11 -13 -21.5t-28 -21.5t-24 -18 q-31 -31 -33 -55q-3 -23 -30 -46.5t-50 -23.5q-4 0 -0.5 5t7.5 10.5t-3 9.5q-19 5 -24.5 4.5t-11.5 -11t-10 -22t-19.5 -27.5t-40.5 -28q-26 -13 -60 -2q-11 5 -18.5 7t-15 5.5t-23.5 15.5l5 3q2 0 6 1q35 7 34 16q0 4 -6 9q-5 4 -42 -4q-17 -3 -17 2v2q2 7 14.5 13.5t23 12 t9.5 13.5q-3 23 -21 4q-20 -20 -24 -21q-4 1 -6 3q-2 3 3.5 8t4.5 8q-4 11 -3.5 16.5t-0.5 16.5q-2 9 -8.5 20.5t-8 15.5t3.5 13q3 2 22 6q5 1 -1 8q-5 6 -10 11.5t-7.5 7.5t-4 4.5t0 4t6.5 5.5q6 4 35 8q8 1 12.5 -3t6 -11t2 -16.5t0 -19t0.5 -17.5q1 -6 1.5 -19t1.5 -19.5 t4.5 -14t10.5 -11t19 -2.5q50 0 75 29q6 5 33 32q5 4 20.5 10.5t22.5 14.5q4 5 10.5 15.5t12.5 18.5t12 13q13 4 17 9t5.5 15t6.5 17q3 5 9.5 12.5t10 13.5t4.5 15q4 18 29 43q30 30 123 184q12 22 16 25l15 12q9 8 8.5 30t7.5 32q9 13 10 35t4 32q8 30 28.5 97.5t35 118 t16.5 67.5q2 19 5 28.5t5 22.5q17 115 17 225q0 48 -4 62q-13 49 -13 155q0 23 -7.5 73.5t-4.5 68.5q5 3 5.5 1t3.5 -7t7 -6t7.5 0.5t7.5 4t6 3.5q12 1 20.5 -2.5t11.5 -6t11 -15t10 -15.5q9 -14 11 -45t6 -41q2 -5 5.5 -11t5.5 -9.5t3.5 -9t1.5 -11.5zM-94 -778q6 1 8.5 4 t2 6t-1.5 7t-1 5q-17 18 -21 2t7 -23q3 -1 6 -1zM-70 -745q19 19 13 34q-1 3 -8 3t-14 -2l-7 -1q0 -14 4 -28t12 -6zM-313 -530q-20 -10 -29 8q0 7 4 22t8 15t12 -21.5t5 -23.5zM-346 -551q8 -4 9 -17q0 -14 -15 -3l-2 8q1 4 2 11t4 4q1 -1 2 -3zM-354 -604q3 -12 -4 -18 q-2 -2 -4 1q-8 13 -7 35q1 17 15 -2v-16z" />
<glyph unicode="k" horiz-adv-x="897" d="M782 623q8 1 19.5 5t17.5 6t13.5 -2.5t13.5 -17.5q6 -11 -10 -10q-4 0 -15 1q-26 2 -27 -4q0 -4 5 -11q2 -2 3 -1.5t3 4t4 5.5q11 3 20.5 -4t6.5 -16q-4 -11 -23.5 -21.5t-24.5 -17.5q-6 -9 -20 -15t-20 -12q-7 -7 -20.5 -22.5t-21.5 -23.5t-20 -19.5t-24 -20.5 q-110 -100 -173 -104q9 -41 9 -80v-62q0 -84 26 -127q25 -48 84 -104q6 -6 18.5 -15.5t22 -16.5t19 -17t9 -16.5t-6.5 -16.5q-10 -9 -11 -2q-1 11 -15 3q-3 -2 -7 -5q-11 -8 -39 3.5t-37 12.5q-7 0 -11.5 1t-9 4t-6.5 5t-7 8t-7 9q-16 13 -26 37q-6 12 -19.5 13.5t-19.5 8.5 q-21 24 -33 59t-14.5 60t-4 70t-2.5 59q-1 10 -4.5 17.5t-3.5 15.5q-6 -1 -27 -9t-34 -8q3 -16 -19 -24t-43 -8q-19 0 -53.5 -18t-48.5 -21q-61 -14 -102 24q-18 16 -19.5 35.5t2.5 40.5q6 44 27 76q10 14 18 32.5t17 44.5t14 38q8 21 33.5 53.5t31.5 42.5q10 16 28 50.5 t32 55.5q68 90 139 213q20 36 61.5 98.5t57.5 90.5q1 3 5 11t6 11.5t5.5 11t7 11.5t7.5 9t9 9t11 6q9 5 13 20.5t10 23t22 -0.5q19 -9 30 -29.5t7 -39.5q-4 -14 -9.5 -20t-23.5 -19q-6 -6 -2.5 -7t10 -4.5t5.5 -9.5t-10 -11.5t-11 -8.5q-20 -27 -47 -80l-162 -272 q-9 -18 -32 -48.5t-40 -42.5q-19 -14 -36.5 -61.5t-24.5 -58.5q-19 -24 -38 -53t-37 -70.5t-13 -61.5q16 0 50.5 17t37.5 18q4 2 14.5 -5.5t14.5 -4.5l-8 16q30 21 70 39.5t65 18.5h14h13t9.5 0.5t9 2.5t6 5t5.5 8t4 12q3 11 7 17.5t6.5 9t10.5 6t13 6.5l72 41 q28 11 56 35.5t47 47.5t44.5 42.5t50.5 22.5zM666 1161q-29 14 -39 53q-8 25 24 70q7 9 22 11t21 -11q4 -9 7.5 -7t8.5 7t7 4q19 -11 8 -37q-5 -11 -10 -39q-5 -26 -18 -42.5t-31 -8.5zM702 1309l-8 3q-9 2 -13 5.5t1 11.5q11 5 16 15t6.5 19t8 17t20.5 9q26 3 32 -31 t-3 -53q-52 26 -49 18t0.5 -10t-11.5 -4z" />
<glyph unicode="l" horiz-adv-x="487" d="M827 1516q8 -10 8.5 -21t-2 -18.5t-10.5 -26.5l-5.5 -16.5t-5 -14.5t-5.5 -10t-10.5 -10.5t-16.5 -9.5q-13 -8 -29 2t-26 8q-9 -2 -12.5 1t-8 13t-10.5 17q-5 9 -5 15.5t9 16t17 15.5l20 15t17 13q48 45 75 11zM700 1356q4 -3 9.5 -3.5t11 0.5t10 2t7.5 -0.5t3 -6.5 q-1 -12 -18.5 -29t-20.5 -21q-15 -27 -60 -86.5t-75 -87.5q-21 -24 -45 -82q-11 -23 -54 -85.5t-60 -79.5q-21 -24 -48 -83t-41 -79q-11 -34 -45 -92t-45 -86q-13 -31 -23 -67t-21 -83t-17 -70q-9 -33 -17.5 -107.5t-0.5 -94.5q21 -57 104 -72q42 -9 80 -4q19 3 21 -19 q1 -19 -7 -21q-4 -1 -8 7q-5 10 -9 13.5t-8 0.5t-6.5 -7t-5.5 -11t-4 -8q-15 -11 -65 -17q-72 0 -116.5 27t-72.5 96q-4 11 -2 36t-8 36q-4 7 -5.5 19t-0.5 27.5t2.5 27.5t4 29t3.5 22q11 94 72 256q1 2 5 11.5t6 14t6.5 12t9 12t10.5 7.5q22 14 47 80q4 8 4.5 24t3.5 21 q64 132 113 195q42 52 102.5 159t110.5 160l69 90q4 3 14.5 6t17 6.5t5.5 8.5q-4 21 -2 26q6 11 7.5 5t9 -15t18.5 -4q16 7 19.5 4.5t1 -9.5t3.5 -11z" />
<glyph unicode="m" horiz-adv-x="1386" d="M1268 440q16 -16 7.5 -70t-36.5 -89q-8 -9 -20 -37q-2 -4 -2.5 -7.5t-1 -5t-1.5 -3.5t-3 -3.5t-5 -3.5q-12 -6 -7 -31t-1 -34q-1 -1 -10.5 -11.5t-16 -20t-2.5 -13.5q3 -3 8 1t5 -1q2 -5 -1.5 -11.5t-9.5 -14.5t-8 -13q-1 -1 15.5 -20.5t23.5 -26.5q6 -5 11.5 -7t8 -3 t4 -5.5t1.5 -15.5q0 -8 -0.5 -12.5t-2 -7.5t-3 -4t-6.5 -3.5t-9 -5.5q-10 -7 -29.5 9.5t-27.5 11.5q-2 -1 -2.5 -4.5l-1 -7l-1 -7t-1 -5.5t-2.5 -1q-3 1 -13 7t-18.5 12t-9.5 6q-2 4 -2 16.5t-2 20.5t-9 6q-3 -1 -6 -12q0 -1 -1 0q0 1 -1 3q-8 27 -1 84.5t20 108.5 q2 10 10 27.5t10 21.5q5 9 16.5 25.5t18 26t10.5 25t-6 23.5q-5 6 -16 6t-17 -6t-11.5 -9t-14 -5t-13.5 -4q-19 -6 -41 -17t-33 -18t-40 -26t-35 -23q-78 -45 -94 -68q-14 -13 -41 -31t-39 -28q-2 -1 -9 -7.5t-10.5 -9.5t-10.5 -6t-13 -4q-7 -4 -27 7t-26 6q-3 -2 -2.5 -4.5 t2.5 -4t4 -0.5q-6 -12 -13 -8q-9 6 -15 18.5t-8 21.5t-5 29.5t-4 25.5v35.5t0.5 49.5t7.5 53.5t20 47.5q-21 0 -43 -10q-16 -7 -71.5 -25t-85.5 -37q-51 -32 -132 -74t-131 -57q-9 -3 -29.5 -13t-38.5 -16t-34 -6q-32 0 -51 31q-12 30 -12 61q0 33 16 60q10 16 30.5 66 t37.5 75q36 45 51 60q7 7 22.5 7t20.5 7q3 4 5 8t10 6l5 2q17 4 21 35q1 12 -8.5 12.5t-21 -3.5t-19.5 5q-5 6 6 13t10 12q-2 11 13.5 38.5t27.5 33.5q8 3 17.5 -3t6.5 -12q-2 -5 -6 -7t-6.5 -2t-4.5 -1.5t1 -5.5q3 -5 9 -5.5t12 2t11.5 4.5t8 -1t0.5 -12q-13 -55 -20 -78 q-3 -8 -11.5 -38.5t-13.5 -44.5t-18.5 -32.5t-30.5 -25.5q-30 -13 -57 -117q-2 -8 -11 -24.5t-8 -26.5q0 -8 16 0q37 32 119.5 66.5t102.5 45.5q184 102 217 119q56 27 100 27q73 0 84 -68q5 -27 -6 -77t-29 -68q-14 -14 -15 -41q0 -25 21 -13q25 14 65 49t52 44 q74 52 125 82q42 24 101 38.5t110 14.5q58 0 74 -19z" />
<glyph unicode="n" horiz-adv-x="772" d="M109 213q3 -10 -3 -38.5t-16 -35.5q-5 -3 -11.5 -6.5t-7.5 -4.5t-3 -6t2 -11q-31 0 -31 49q0 44 21 111.5t38 105.5q2 4 22.5 55.5t37 78t28.5 17.5q2 -2 3 -5.5t1.5 -7t1.5 -6.5t3.5 -2.5t7.5 5.5q5 4 7.5 4.5t3 -1t2.5 -4t5 -3.5q14 -5 14 0q-1 6 -12 24q-2 4 4.5 11 t3.5 10q-1 2 -4 2t-5.5 -1.5t-4.5 -0.5t-2 4q0 20 22.5 27t36.5 -15q12 -21 8 -56q-3 -23 -15 -22q-2 1 -3 1q-4 2 -4 7q0 2 -4 1q-7 -2 -18 -34.5t-21.5 -63.5t-15.5 -29q-9 3 -10.5 9.5t1 13.5t5 13t1 9.5t-9.5 1.5q-10 -2 -12 -14.5t0.5 -26.5t-0.5 -25 q-23 -104 -47 -121q-6 -4 -11.5 -2.5t-9.5 0t-6 -9.5q4 0 7 -8zM147 371q-4 -15 -4.5 -25t2 -12t8.5 6t13 25q3 10 0.5 16.5t-9 4.5t-10.5 -15zM117 283q-1 -3 -6.5 -13t-6 -14.5t1.5 -13.5q6 -9 20 18q14 29 7 39q-4 4 -16 -16zM94 176q-2 0 -0.5 6.5t3.5 13t-1 9.5l-10 -2 q-5 -5 -6.5 -28t4.5 -23q10 0 10 24zM666 6q2 2 3.5 6t3 6t5.5 0q33 -18 -9 -55q-41 -37 -91 -46q-5 -1 -9 -1q-1 8 0.5 21.5t3.5 25.5t3.5 23t1 17.5t-4.5 6.5t-12.5 -33.5t-11.5 -48.5q-12 0 -20.5 16.5t-8.5 30.5q1 21 3 59t4 70.5t5 61.5q1 19 1.5 43t-11.5 42t-35 13 q-8 -1 -44.5 -3t-57.5 -11q-12 -4 -44.5 -12t-53 -13.5t-44.5 -16.5t-36 -24q-33 -37 -76 -71q-27 -20 -25 -7q20 83 21 97q1 17 8.5 19t17 -1.5t19.5 8.5q6 8 18 18t20.5 15.5t27 17.5t20.5 13q105 65 264 82q52 3 80 -35q35 -48 35 -133q0 -35 -6 -70q-2 -10 -1 -23.5 t-1 -26t-8 -15.5q-5 -3 -6.5 -11.5t0 -23.5t1.5 -17q0 -16 5.5 -22.5t14.5 -5t16 5t14 8.5zM578 31q10 17 6 49q-2 18 -11 14t-10 -15t2.5 -28t3.5 -24q3 -2 6 -0.5t3 4.5zM80 102l4 17q11 -2 9 -15q-1 -11 -11 -8q-2 0 -2 6z" />
<glyph unicode="o" horiz-adv-x="851" d="M793 414q-4 -11 -14 -42t-15 -44.5t-14 -36.5t-19.5 -40.5t-23.5 -33.5q-7 -10 -17 -7t-15 7.5t-9 -6.5q-2 -8 4 -12.5l8 -6t-8 -12.5q-1 -1 -17 -14t-24 -21q-3 -3 -25.5 -33.5t-30.5 -37.5q-9 -8 -45 -28.5t-41 -27.5q-13 -28 -74.5 -57.5t-95.5 -36.5q-14 -2 -38 -6 l-33 -5.5t-34 -3.5t-40 1q-9 1 -30.5 2t-39 3.5t-28.5 8.5q-34 22 -56 68q-16 33 -16 100q0 64 21 150q13 51 38 102.5t58 77.5l14 10t10 7t7.5 7t9.5 13q8 17 27.5 6t27.5 -4q10 13 3 20.5t-14.5 20t-0.5 24.5q13 13 32 19t27 10q9 5 26 17t29 19.5t27 14t27.5 5 t23.5 -10.5q10 -9 14 -17.5t17 -13.5q24 -8 26.5 -54t-10.5 -64q-2 -4 -6 -7.5t-5.5 -5.5t-0.5 -6q3 -12 -6 -21.5t-18 -0.5q-5 5 -16.5 9t-17 11.5t-5.5 24.5q0 2 -1 10t-1.5 13.5t-3 13t-6.5 8.5t-11 0q-14 -6 -33 -25t-33 -30t-22 -3l-18 21q-16 -9 -18 -14.5t4 -9 t13 -10t7 -15.5q0 -18 -21 -39q-8 -8 -21.5 -19t-21.5 -20.5t-12 -24.5q-7 -27 -36.5 -83t-35.5 -93q-8 -29 -3 -63t34 -49q29 -19 70 -19q43 0 94 23q4 2 38 14.5t50 24.5q13 11 59 44.5t68 55.5q13 15 35.5 31.5t23.5 1.5q0 -3 -4.5 -7t-6 -5.5t2.5 -4.5q11 -5 23.5 0.5 t25.5 21.5t21 27.5t20.5 32.5t14.5 23q17 25 24.5 38.5t16 36t4 42t-20.5 38.5q-14 19 -9 23.5t12 12t1 20.5q-12 15 -16 8t-18 -18t-31 -5q-11 3 -10 12.5t-1 18.5q-5 7 -16 5t-16 -9q-2 -2 0 -5t3 -4t-3 -3q-6 -2 -9.5 5t-6.5 12t-7 1q-12 -12 -13 -32t-22 -42 q-8 -8 -11.5 -11t-9.5 -7t-10.5 -3t-9.5 5q-3 3 -0.5 4t6.5 3t3 5q-11 35 -10.5 46t12.5 26q17 24 38 29q12 4 19 -6t14 -3q4 4 -1 12t1 9q3 1 10 -6.5t11 -5.5q8 3 15.5 19.5t16.5 19.5q16 6 59 -5.5t60 -23.5q18 -9 27.5 -34.5t15.5 -33.5q22 -36 13 -67z" />
<glyph unicode="p" horiz-adv-x="913" d="M795 391q0 -10 2.5 -36.5t2 -46t-6.5 -32.5q-7 -11 -22.5 -22.5t-20.5 -17.5q-7 -8 -10 -27q-2 -12 -4.5 -11.5t-8.5 7.5q-3 4 1.5 18t-1.5 15q-6 2 -17 -7.5t-18 -15t-16 5.5q-7 12 -14 12.5t-15 -4.5t-14 -4q-7 1 -13.5 14t-3.5 19q4 10 52 31.5t51 48.5q-4 44 -17 78 l-18 37q-1 2 -4 7.5t-3.5 6.5t-3 3.5t-4.5 2t-5.5 -1t-8.5 -2.5q-10 -4 -21.5 -5t-28 -1.5t-23.5 -1.5q-89 -11 -123 -53q1 -1 -16 -18.5t-43 -41t-46 -37.5q-47 -37 -65 -53q3 -3 -4 -21t-15 -41t-6 -36q-57 -275 -117 -416q-11 -24 -40.5 -96t-54 -122.5t-48.5 -76.5 q-15 -15 -27 -34t-24.5 -42.5t-22.5 -38.5q-30 -45 -57 -43q2 -10 -11 -11q-21 -3 -37 9q-2 1 -3 2q-4 4 -14 7t-13 20q-9 34 -6 70q2 29 2.5 81.5t1.5 69.5q0 10 12 28.5t15 26.5q1 8 5 11t7.5 2.5t5.5 1.5t0 8q-11 36 0 51q2 2 7 5.5t5.5 4.5t3.5 5t1.5 6t-0.5 8 q-1 13 6 15.5t8 13.5q0 3 -1.5 12t-0.5 14.5t6 9.5q6 4 8 8.5t3.5 12t4.5 12.5q2 5 3.5 7.5t3 3t6 2.5t8.5 4q20 10 20 24q0 21 39.5 84.5t42.5 73.5q11 32 27.5 62.5t29.5 48.5t39.5 52.5t38.5 51.5q37 54 33 90q-4 17 -2 41.5t19 32.5q10 4 12 8t0 16q-1 9 0.5 12.5t4.5 3 t4.5 1t0.5 6.5q-3 11 -19.5 18t-27.5 13t-6 18q3 7 13 9.5t20.5 2t20.5 -0.5t14.5 3t1.5 11q-2 3 -6 5t-8.5 2.5t-8.5 1t-6 2.5t0 5q2 7 14 16t19 2l24 -22q4 -6 -1 -11.5t-11 -9t-4 -4.5q3 -4 13.5 -8t12 -7.5t-3.5 -19.5q-2 -5 -6 -11t-6 -11t-2 -12q0 -2 -0.5 -6.5 t-0.5 -8t1 -7t4 -5.5q8 -5 0 -12t-4 -11q18 -21 80 17q71 48 156 133q24 26 63.5 38.5t75.5 6.5q53 -8 108.5 -62t55.5 -104zM41 -37q7 19 15 19q10 -1 5 -27q-7 -12 -14.5 -8t-5.5 16zM117 -31q15 48 24 103q5 36 -3 33l-5 -3q-4 -10 -6 -15.5t-5 -10.5t-5 -7.5t-7 -9 t-10 -12.5q-4 -5 -11.5 -4.5t-14.5 -3.5q-11 -7 12 -19q21 -10 21 -14q0 -3 -7 -6q-26 -15 -34 -10q-31 24 -33 23q-2 0 -5 -28q-4 -26 -12 -53q-1 -2 3.5 -6.5l7 -7t-1.5 -6.5q-3 -3 -23 0.5t-22 -2.5q-8 -12 0 -20t17.5 -13.5t6.5 -11.5q-1 -4 -1 -13t-1.5 -14t-5.5 -2 q-31 17 -48 0.5t-9 -55.5q1 -8 -1 -20.5t-7.5 -22.5t-12.5 -8q-4 1 -6 4.5t-6 3.5q-26 0 -29.5 -22.5t21.5 -34.5q11 -6 9 -10.5t-13 -6.5q-8 -1 12 -14l12 -8q7 -7 5.5 -14.5t-8 -13t-9.5 -3.5q-18 12 -37 11t-19 -14t27 -36q3 -2 8 -5q7 -3 2 -8q-1 -1 -4 -3 q-4 -3 -22 -21q-6 -6 0 -11t12.5 -13.5t1.5 -20.5q-11 -27 2 -31q6 -2 9 1t5.5 12t4.5 12q9 17 26 48t29.5 56t21.5 50q6 18 23.5 38.5t21.5 26.5q7 9 10 22t4 29t3 25q9 34 40.5 96t41.5 94zM385 225q16 -10 74 2t76 9q48 -9 94 -31q7 -4 9.5 -6.5t2.5 -4.5t-1.5 -7.5 t-2.5 -10.5q-17 3 -33 0q7 -10 3.5 -20t-17.5 -11q-5 0 -25 -11.5t-33 -10.5q-21 4 -72.5 0.5t-68.5 -2.5q-34 2 -73 26q-26 17 -17 27q38 43 47 68q9 0 14.5 -1.5t7.5 -3t6 -5.5t9 -7zM-33 -225q0 15 16.5 23t20.5 -17q3 -16 -5.5 -25.5t-19 -4.5t-12.5 24z" />
<glyph unicode="q" horiz-adv-x="962" d="M936 551q2 0 21 13q10 7 8 0q-1 -2 -2 -5q-4 -10 -19.5 -24t-19.5 -21q-22 -43 -41 -113q-5 -17 -13.5 -46.5t-12 -41t-11 -33t-14 -35.5t-16.5 -33.5t-23 -41.5q-41 -80 -93 -168q-16 -25 -34.5 -81t-28.5 -77q-140 -294 -213 -462q-4 -7 -20.5 -31.5t-22.5 -40.5 q4 -9 1 -27t-4.5 -28.5t-8.5 -29t-11.5 -28.5t-12.5 -27.5t-11 -25.5q-8 -19 -25.5 -51.5t-23.5 -44.5q-6 -14 -3 -47t-10 -41l-5 -6q-5 -5 -6.5 -6l-7.5 -5t-8 -2t-9 2q-6 7 -12.5 3.5t-12.5 0.5q-13 10 -10.5 43t-3.5 47q-12 12 0 27q0 26 18 14q14 0 21.5 9.5t-0.5 21.5 q-7 -1 -14.5 -7t-9.5 -5t-1 14q0 5 -1.5 12.5t-1.5 14t3 12.5q17 11 12 27q1 4 -0.5 6t1 5.5t2.5 4.5t3.5 4t4.5 3.5t5 3t5 3.5q0 25 7 46t24 54t22 44q71 149 84 190q18 58 59.5 158t67.5 133l12 13q12 13 18 22.5t5 15.5q-3 16 12 66q30 74 68 145l53 84q1 2 11.5 27 t19 39t12.5 10q10 -16 2.5 -28t-19 -33t-8.5 -35q14 -14 29 0q0 16 5 32t15 37.5t13 30.5q2 4 9 15t7.5 15t-2.5 15q-20 32 -6 43q5 4 20 29q15 37 15 82q-10 0 -31.5 -16.5t-47.5 -40.5t-32 -29q-64 -48 -110 -97q-13 -13 -66.5 -47.5t-65.5 -50.5q-17 -24 -100.5 -75 t-130.5 -72q-71 -23 -113 -17q-25 3 -44 23t-27 49q-19 62 8.5 143.5t75.5 151.5q19 32 83.5 101t102.5 100q4 3 18.5 15t21 17t18.5 12t22 11q11 5 32.5 6t28.5 2q10 2 24.5 11.5t31.5 7.5q95 -6 118 -37q37 -49 33 -160q13 3 24 10t28.5 25.5t21.5 21.5q4 6 12 17t12.5 16 t14.5 12t24 11q13 4 29 21t30 34t30 30.5t34 11.5t37 -24q15 -26 8.5 -44.5t-15.5 -34.5t-3 -21zM471 274q-21 -18 -8 -34q12 -14 28 -2q7 5 11 16q3 8 -11 17t-20 3zM567 373q29 48 29 100q0 50 -31 66q-5 3 -11.5 8t-11 6t-16.5 0q-24 -2 -47 8q-38 16 -73 -12 q-2 -2 -19 -16t-20.5 -17t-19 -16t-20.5 -18t-18 -17t-19.5 -19t-17.5 -18.5t-18 -21t-16 -21t-17 -23.5q-16 -16 -52.5 -72t-39.5 -67q-2 -8 -7.5 -29t-8 -33t-1.5 -28.5t9 -28.5q14 -25 42 -14.5t52.5 33.5t55 45t48.5 20q9 -2 28.5 11t41 30.5t25.5 20.5q26 15 61.5 46 t59.5 48q-4 17 13 21.5t19 7.5zM610 512q20 -9 25 11q5 18 -5 25q-9 6 -20 -7q-2 -2 -2.5 -15.5t2.5 -13.5z" />
<glyph unicode="r" horiz-adv-x="772" d="M764 401q6 0 8.5 -1t3 -3.5t0 -5.5t0.5 -8q-10 0 -18.5 2t-19 8t-14 8.5t-16.5 13t-14 11.5q-12 16 -32 31q-3 2 1 14.5t3 13.5q-2 3 -12.5 10t-12.5 13q-4 9 -9.5 13.5t-15 9t-14.5 8.5q-12 9 -24.5 11.5t-19 2t-22.5 -5t-24 -6.5q-33 -5 -130.5 -93.5t-125.5 -128.5 q-12 -16 -39.5 -47t-44.5 -54.5t-27 -49.5q-3 -6 -8.5 -22t-11 -27t-12.5 -19q-16 -18 -37 -22t-35 10q-21 24 -21 62q0 8 11.5 22.5t13.5 17.5q107 202 139 361q1 1 9.5 8t15.5 14.5t10 12.5q5 6 3.5 12t-6 7.5t-9.5 -1.5q-2 -2 -14.5 -15.5t-16.5 -15.5q-12 -6 2 19 q13 20 15 20q15 16 32 21q31 7 47 -45q6 -19 -5 -59.5t-7 -51.5q32 16 79 62t69 61q51 33 159 66q40 12 78 -23q6 -5 17 -12t18.5 -14t11.5 -17q5 -12 31.5 -52.5t32.5 -66.5q3 -14 1 -18.5t-1.5 -9t6.5 -13.5q2 -3 1 -7.5t-2.5 -10t-3 -10t0 -8t6.5 -3.5z" />
<glyph unicode="s" horiz-adv-x="487" d="M238 692q36 -8 58 -14.5t50 -22.5t43 -39q16 -26 27 -73q15 -75 -4 -68q-2 0 -4 2q-2 3 -3 12t-4 13q-4 4 -10.5 4.5t-9.5 5.5q-6 15 -29 61q-1 2 -6.5 0t-9.5 5q6 13 -12 24q-7 4 -13 -2t-8 -6q-6 -2 -17 6.5t-16 5.5q-6 -6 -1.5 -11t18.5 -13q5 -3 7.5 -7t0.5 -5.5 t-12 1.5q-86 25 -115 -6q-19 -22 -23 -63q0 -12 12 -50t19 -44q11 -9 20.5 -22t18.5 -30t14 -24q28 -47 50 -62q8 -11 25 -32t26.5 -33.5t21 -34t17.5 -43.5q2 -11 2 -21t-1 -16.5t-6.5 -16.5t-8.5 -14t-11.5 -16t-11.5 -16q-24 -28 -47 -33q-5 -1 -23.5 2t-23.5 -2 q-66 -30 -93 -33q-5 6 -3.5 8.5t7 9t7.5 11.5q2 9 -7 15q-4 3 -4 -1q0 -10 -13 -24.5t-28 -22.5q-23 -6 -52 -4t-42 22q-17 19 -10 39q4 9 8 13t9 5t12 1h16q83 19 168 55l19 6q18 5 30 11t12 12q0 18 -22.5 46.5t-57 70.5t-53.5 81q-8 16 -30 50.5t-35 62t-17 55.5 q-5 68 19 90q6 4 6 13t-2 20.5t0 18.5q6 21 69.5 46.5t86.5 20.5zM109 547q0 25 -25 16q-9 -16 4 -30q13 -13 19 2q2 4 2 12z" />
<glyph unicode="t" horiz-adv-x="628" d="M928 1425q21 -32 8 -43q-3 -3 -4 4q-3 16 -6 19q-3 4 -23 4q-16 -29 -20 -43q-2 -8 1.5 -11.5t9 -3.5t9 -2.5t0.5 -7.5q-7 -21 -21 -45t-34 -52.5t-29 -43.5q-24 -45 -100.5 -141t-93.5 -133q-22 -47 -48.5 -89.5t-63 -93t-52.5 -75.5q-1 -2 -7 -8.5t-10 -11.5t-10 -13.5 t-6.5 -12t0.5 -8.5q11 -14 37 -18q21 -5 60.5 -8.5t56.5 -7.5q10 -3 48.5 -5t49.5 7q4 4 16.5 -8.5t10.5 -18.5q-1 -3 -4 -5.5t-5 -3.5t0 -3q3 -3 15 8q3 2 4 0q-1 -15 -4.5 -17.5t-10.5 0.5t-12 1q-3 -1 -4.5 -5.5t-1 -7t-1.5 -4t-7 3.5q-3 4 -2 9.5t0 9.5t-6 2 q-13 -5 -6 -17q6 -6 6 -12t-15 -6.5t-36.5 2t-24.5 2.5q-14 -1 -35 -4t-33.5 -4t-30 0t-34.5 6q-19 5 -50.5 2t-50.5 -14q-15 -10 -24 -26.5t-17.5 -44.5t-11.5 -34q-5 -13 -23 -54.5t-25.5 -61t-20 -53.5t-20.5 -62.5t-13 -57.5q-6 -29 -10 -86q0 -7 1.5 -10.5t3.5 -5.5 t6.5 -1.5t7.5 1.5t10 3t11 3q9 1 43 2t50 6q4 1 4 11q-1 4 2 2q6 -2 0 -11.5t-4 -11.5q5 -6 16.5 -1t13.5 11q2 8 -5.5 12t-8.5 13q-2 14 15 23t24 -5q1 -4 3 -8q1 -3 -1 -7q-1 -2 -2 -3q-2 -2 -5 -4.5t-5 -3.5t-2 -3t4 -5q5 -2 10 8q4 -9 2 -17t-8 -10q-1 0 -5 3.5t-7 2.5 t-3 -3t0.5 -4.5t-1.5 -4t-7 -0.5q-9 1 -13 -3t-7.5 -13.5t-7.5 -14.5q-15 -22 -35 -28q-4 -2 -10.5 -2.5t-11 -1t-5.5 -3.5q-2 -2 -2 -5t-0.5 -4t-3.5 -1l-14 4l-45 -12q-4 0 -11.5 -0.5t-12 -1t-10 1t-9.5 4.5q-6 6 -18 9.5t-19 9.5q-35 35 -35 110q0 85 47 223 q33 97 103 224q8 15 9 27.5t-4.5 21.5t-13.5 16t-21 12.5t-24.5 10t-25.5 9.5t-23 9q-44 19 -84 57.5t-51 81.5q-14 61 45.5 87.5t110.5 2.5q-3 -7 -17.5 -15t-17.5 -11q-6 -5 -7.5 -5.5t-5.5 1t-10 2.5q-23 2 -42 -11t-5 -30q4 -4 18.5 0.5t18.5 -0.5q4 -4 5.5 -9t6.5 -8 q20 -14 72 -43q129 -90 166 -26q2 8 24.5 40.5t49.5 69.5t32 45q7 12 38 72.5t57 93.5l65 82q24 29 111 147.5t125 159.5l30 41q12 11 32.5 10.5t27.5 -12.5zM735 551q5 -4 7.5 -11t-0.5 -12.5t-11 -5.5q-8 20 4 29z" />
<glyph unicode="u" horiz-adv-x="868" d="M264 608q0 9 -22.5 16.5t-26.5 12.5q-1 7 -1.5 8.5t5 6.5t6.5 7q14 17 25.5 10t19.5 -32q7 -18 -6 -29zM752 418q30 -49 -47 -187q-4 -10 -14.5 -43t-24.5 -59q-4 -7 -13.5 -23.5t-14.5 -26t-12 -23.5t-11.5 -27.5t-6.5 -26.5q-2 -7 -1.5 -7.5t2.5 3.5q5 8 7 10q3 2 3 -2 q0 -2 -3 -13q-10 -40 5 -40q11 0 16.5 -1t10 -5t5.5 -13q1 -2 3 2q7 11 8 11q7 -3 6 -9t-4.5 -9.5t-9 -11t-7.5 -13.5q-5 -7 -7.5 -9t-8.5 -2.5t-10 -1.5q-39 -10 -64 5q-10 7 -15.5 29.5t5.5 27.5q10 3 16 28t0 31q-3 3 -11.5 -1t-10.5 -3q-3 3 -2 4.5t4.5 5.5t3.5 7 q1 16 -11 28t-8 27q2 9 15 20.5t16 20.5q5 15 23.5 41.5t23.5 48.5q5 -3 17 -18q4 -5 4 2q0 11 -1.5 15t-5.5 8.5t-8 10.5q11 9 19 37q1 4 7 18t9 22.5t5 22t-3 15.5q-7 -9 -17.5 -14.5t-25 -11t-22.5 -9.5q-10 -3 -17 -9t-13 -15.5t-11 -14.5q-38 -35 -107 -73 q-12 -7 -50 -35t-44 -35q-13 -16 -78.5 -58.5t-103.5 -62.5q-20 -12 -72 -12q-32 2 -56 20t-24 52q-1 12 -5 27.5t-5 23.5q-3 8 -0.5 18.5t8 23.5t6.5 19q4 14 24 59.5t43.5 97t29.5 66.5q22 56 26 62q2 4 10.5 14t12 18.5t2.5 18.5q-6 25 16 47q11 12 44 15t38 22 q10 -19 0.5 -63.5t-24.5 -65.5q-20 -27 -55 -122.5t-54 -115.5q-9 -9 -12 -45t-15 -41q-8 -3 -11 -9t-2.5 -10t3.5 -14t4 -12q3 -12 14.5 -13t28 6t32.5 15.5t31.5 17.5t20.5 11q10 4 18 8t12.5 7.5t13 10.5t16.5 13q20 15 67 45.5t87 60t69 60.5q37 40 90 72q77 49 115 49 q40 0 43 -45z" />
<glyph unicode="v" horiz-adv-x="786" d="M829 651q16 -11 13 -35q0 -9 -2 -11.5t-8.5 -3t-12.5 -3.5q-17 -6 -49 -33q-30 -26 -53 -33q-9 -3 -15 -8.5t-20 -7.5q-6 -2 -56.5 -52t-62.5 -67q-11 -16 -53 -53.5t-55 -52.5l-136 -125q-6 -13 -34.5 -33.5t-38.5 -30.5q-9 -9 -30.5 -14t-29.5 -14q-25 -29 -96 -29 q-8 1 -14 13t-13 10q-12 -3 -19 -4t-10 5.5t-4 11t-1 13v10.5q-4 18 -5 35.5t0 46t1 35.5q2 21 18 66.5t18 68.5q0 30 11.5 76t27.5 74q7 12 15 18t15 8t22 3l24 -17q15 3 22.5 17t-1.5 28q-2 3 -10.5 8.5t-10.5 12.5q18 6 29 -4.5t6 -28.5q-3 -16 -7.5 -23t-19.5 -22 q-3 -3 -1 -4t6 -1.5t5.5 -3t-4.5 -8.5q-4 -4 -5 -19t1 -24q1 -11 -8.5 -22.5t-7.5 -17.5q1 -3 2.5 -8t2 -7.5t1 -6.5t-1 -6.5t-4 -6t-6.5 -6.5q-2 -2 -3 2q-1 10 -2 10.5t-3 -0.5q-14 -7 -4 -41q1 -3 5 4q2 4 3 2q4 -10 -2 -33.5t-16 -49.5t-11 -34q-1 -4 -5 -12.5 t-7.5 -15.5t-6 -14t-1.5 -11t6 -4q14 0 79 37.5t76 56.5q15 24 53.5 55.5t45.5 38.5q2 2 21.5 21t36.5 33t24 14q11 0 28.5 17.5t32.5 38t28 40.5l13 19l49 53q35 35 68 47q19 8 33 2q10 -1 14 0t15 6.5t16 7.5q51 11 79 -4z" />
<glyph unicode="w" horiz-adv-x="1290" d="M1286 768q4 -7 12.5 -16.5t11.5 -15t4.5 -12.5t-4.5 -14.5t-20 -15.5q-31 -18 -48 -55t-28 -47l-73 -55q-18 -18 -45 -66q-4 -8 -22 -23.5t-40.5 -34t-27.5 -22.5q-34 -27 -107 -100l-55 -35q-5 -6 -21 -26.5t-29.5 -35.5t-25.5 -22q-11 -7 -13 -18.5t-16 -16.5l-24 13 q-5 -5 -3 -8.5t7 -6t3 -6t-15 -8.5q-8 -2 -22 -19.5t-19 -17.5q-13 2 -38.5 -15t-39.5 -20q-14 -2 -43 -2q-11 1 -15.5 3.5t-10.5 11t-9 12.5q-4 6 -19 24t-23 31t-13 29q-7 32 -11 118q-4 42 -22.5 48t-48.5 -11q-15 -7 -31 -17.5t-39 -26.5t-41 -27q-5 -4 -21 -13t-29 -17 t-15 -11q-6 -9 -45 -19.5t-50 -7.5q-36 12 -69 12v17q-36 -4 3 103q9 25 27 68l11 27q-6 0 -13 -7.5t-12 -4.5q-10 5 8 30t9 32q-6 11 -3.5 25.5t10.5 39.5t9 31q1 9 10 16.5t8 20.5q-1 8 14 14t17 14q5 12 4.5 15t-10.5 10q-18 10 0 30q19 20 39 12q3 -2 6 -5q2 -2 -3 -6 t-1 -6q19 -9 21.5 -30t-1.5 -40l-20 -111q-1 -9 -5.5 -15.5t-12.5 -13.5t-11 -12q-5 -5 -5.5 -9.5t0.5 -12t1 -10.5q0 -20 -20 -70q-2 -5 -7 -15t-7.5 -16t-3 -12.5t4 -9.5t15.5 -2q42 1 92 23.5t86 55.5q8 8 18.5 12t27 8t26.5 7q3 1 8 2.5t6.5 2l4.5 1.5t4.5 3.5t4 5.5 t6.5 8q10 13 48 8.5t51 -17.5q7 -7 12.5 -16.5t9.5 -17.5t7.5 -20.5t5.5 -19.5t4.5 -22t3 -20t2.5 -21.5t2 -19.5q3 -27 18 -92q10 0 32.5 20.5t27.5 22.5q10 6 31.5 25t35.5 26q20 12 48.5 47t47.5 47q42 20 95 84q23 28 77.5 67.5t73.5 57.5q20 17 44 47.5t45 57.5 t45.5 53t55 42t64.5 17z" />
<glyph unicode="x" horiz-adv-x="819" d="M924 797q7 0 8.5 -14t-4.5 -17q-16 -6 -17 12q1 16 13 19zM870 778q8 1 17.5 -2.5t13 -9.5t-1.5 -12q-14 -14 -8 -21h-2h-10q-2 0 -5 2.5t-6 3.5q-6 1 -9 -1t-2 -6.5t2.5 -9t2.5 -8.5t0 -5q-5 -5 -22.5 0.5t-20.5 -0.5l-4 -21q-6 -8 -12.5 -8t-14.5 3t-14 1q-1 0 0 -1 l2 -1q11 -6 10 -10q-2 -5 -1.5 -8.5t2 -5.5t-0.5 -2.5t-8 -0.5q-8 0 -12 -2t-8 -6.5t-8 -7.5q-1 -1 -2 5q-2 3 -3 3q0 -14 -8.5 -20.5t-24 -11t-22.5 -9.5q-25 -20 -59 -63q-8 -9 -63 -59.5t-62 -51.5q0 -21 40 -125t40 -151q0 -54 -43 -68q0 5 -11.5 21.5t-13.5 23.5 q-4 19 -23.5 63.5t-19.5 53.5q-1 8 -6.5 17t-15 20t-11.5 14q-2 4 -6 11.5t-6 10.5t-5.5 7.5t-6.5 6t-6.5 2t-7.5 -2.5t-9 -8q-5 -6 -18.5 -18t-24.5 -24t-16 -24q-10 -18 -27 -36t-44.5 -44t-33.5 -32q-10 -10 -58.5 -50t-68.5 -67q-4 -5 -32.5 -48.5t-48.5 -64.5 q0 14 -2.5 24t-2.5 33q0 5 -8 19.5t-12.5 23t0.5 11.5q2 0 4.5 -3t4 -5t3.5 0q9 9 3.5 23.5t6.5 29.5q1 1 25.5 36.5t44 55.5t35.5 20l84 82q4 6 16.5 28t28.5 34q2 1 9.5 6t14 9.5t16 11.5t17 13t16 13.5t14 14t9 13t3 12t-4.5 9.5q-21 21 -35 53q-3 7 -5 10.5t-4.5 7 t-3.5 4.5t-6 5.5t-9 7.5q-62 58 -84 105q-1 3 4 3q8 0 8 1q-3 6 -6 11.5t-4.5 6.5t-1.5 4t1 5t5 8q2 6 0.5 18t-3 18.5t4.5 10.5q21 7 26.5 8t22.5 -4q14 -7 37 -39q21 -40 45 -57q5 -3 18 -10t20 -13.5t7 -15.5q0 -15 17.5 -24t21.5 -19q19 -33 37 -15q12 13 59 37 q19 12 40 43t54 39q20 5 45.5 25t47.5 24q13 3 16.5 15t9.5 18q22 16 58 16q9 0 27.5 17.5t27.5 11.5q3 -3 4.5 -6.5t1 -5t1.5 -2.5t7 2q9 4 5.5 12t4.5 8zM137 668q-29 13 -25 57q3 34 21 39q6 1 12 -2q4 -2 -1.5 -12t-2.5 -13q5 -7 8.5 1.5t9.5 20t17 9.5q14 -3 14.5 -19 t-6.5 -28q-3 -7 -7.5 -14.5t-12.5 -20.5t-15.5 -18.5t-11.5 0.5zM-18 2q12 12 12 -8q-6 -18 -10 -1q0 2 -0.5 3t-1 3t-0.5 3z" />
<glyph unicode="y" horiz-adv-x="694" d="M690 639q3 -4 1.5 -22t4.5 -19q1 -1 2 4q3 4 4 4q4 -5 -0.5 -9t-17 -8.5t-16.5 -6.5q-5 -3 -8 -4.5t-5.5 -3t-3.5 -4.5t-1.5 -4t-2 -7.5t-2.5 -9.5h4q-2 -11 -20.5 -17t-18.5 -12q0 -17 -3.5 -25t-11.5 -16.5t-13 -15.5q-46 -46 -50 -49q-13 -10 -71.5 -74.5t-79.5 -91.5 q-5 -7 -15.5 -10t-15.5 -11q-6 -16 -16 -28q-5 -7 -18.5 -16t-20.5 -23q-3 -7 -44.5 -49t-47.5 -50l-7.5 -10l-7.5 -10t-7.5 -7.5t-10.5 -4.5q-18 -7 -38.5 -33.5t-42 -62.5t-30.5 -48q-5 -7 -42.5 -43t-43.5 -53q-4 -8 -5 -19.5t-5 -17.5q-7 -8 -22 -29.5t-25 -31.5 q-6 -6 -9.5 -22.5t-8.5 -22.5q-11 -18 -35 14q-10 15 -15 29q-6 18 -6 35.5t4 31t13 29t16.5 25.5t20 25t18.5 24q9 13 129 172q24 34 74 89t71 85q5 9 27 26.5t29 38.5q5 5 2 19.5t-7 24.5t-11 25t-9 21q-6 18 -22 40.5t-21 35.5q-7 15 -10 33t-14 33q-5 6 -9.5 23.5 t-9.5 21.5q-17 16 -27.5 44t-13.5 32q-11 15 -17.5 27t-11.5 19.5t-16 18.5q-2 2 -11.5 6t-12.5 11q-4 20 0 26q1 1 3.5 3t4.5 4t4 5q8 16 11.5 19t16.5 2l8 1q8 1 11.5 -1t5.5 -8q1 -3 0.5 -5t-2.5 -3t-2.5 -2t0.5 -3q2 -7 3 -9t5 -3.5t8 -5.5q2 -1 19.5 -11t23.5 -16 q4 -5 10 -12q8 -10 10 -14l17 -27q29 -43 78 -156q9 -21 21.5 -57.5t22 -57t22.5 -30.5q3 -1 39.5 38.5t52.5 57.5q10 17 19.5 26t29.5 21q13 8 33.5 24t27.5 21q17 8 23 13q4 2 7 10.5t7 7.5q8 0 12.5 9t8.5 10q4 -22 5 -22q1 -1 3 1q4 3 5.5 15.5t4.5 17.5q2 4 4 10 q5 10 9 12l6 2q4 2 9.5 7t8 7t6.5 -1q3 -3 1 -12q-1 -3 3 -1q3 2 6 10.5t7 10.5q-2 -9 -0.5 -16.5t6.5 -4.5q4 2 8.5 11t6.5 12t7 -2zM614 537q1 6 -1 8t-7 0q0 -6 2 -8.5t6 0.5zM623 575l-2 11q-5 4 -9 0q-4 -2 0 -11q1 -3 2 -2t4.5 -0.5t4.5 2.5zM680 594q2 4 2 12 q-2 1 -6.5 4.5t-6.5 4.5t-5 -1q-7 -12 16 -20zM684 614q0 7 -6 13q0 -13 6 -13zM784 719q8 -17 -4 -17q0 13 2 21zM735 670q-5 7 -6 16q12 4 12 -4q-1 -9 -2.5 -9.5t-3.5 -2.5zM754 682q2 -1 5.5 -1t4.5 -0.5t0.5 -2.5t-4.5 -8q-2 1 -6 12zM770 666q-2 4 -2 16q10 0 11.5 -3 t-5.5 -15q-2 -3 -3 -2t-1 4zM750 670q1 -5 6.5 -9t3.5 -10q-3 -10 -14 -20.5t-17 -7.5q-2 1 -4 15q-1 4 -4 1q-6 -7 -9 -25l-2 -6q-1 0 -3 6q-2 9 -7.5 16.5t-7.5 12.5q11 0 15 4q-2 1 -5 5l-2 3q3 3 5 3t7 -3t7 -4q0 5 -4.5 8.5t-3.5 6.5q2 6 5 7q2 1 3 1q2 -2 5.5 -7.5 t6 -8t5.5 -5t7 -2.5l-2 19h9zM696 664v-13q-8 -2 -16 4q5 0 7.5 5.5t8.5 3.5z" />
<glyph unicode="z" horiz-adv-x="851" d="M928 33q12 -2 30 -8.5t21 -12.5q7 -15 -0.5 -30.5t-22.5 -18.5q-15 -4 -52 -4.5t-50 -3.5l-98 -6q-97 -15 -273 28q-160 49 -213 58q-7 1 -13 4.5t-14.5 11t-9.5 8.5q-4 4 -62 25t-85 41q-8 6 -28 15.5t-31 19.5t-13 26q-6 47 0 74q3 12 18.5 25.5t16.5 25.5q7 30 47 58 q5 4 22.5 14.5t32.5 21t21 19.5q10 16 33.5 29.5t30.5 19.5q55 41 83 57q47 28 124.5 86.5t105.5 77.5q5 3 20.5 11t26 15.5t14.5 16.5q-45 19 -49 27q1 1 3.5 3t4 3.5t2.5 3.5t0 4q-8 22 -23 -10q0 -1 -1 -2q-27 10 -51 10q-17 0 -45 -6.5t-35 -7.5q1 3 3 7q2 5 -3 5 q-8 0 -17.5 -14.5t-17.5 -26t-16 -6.5t-12.5 10t-5 5.5t-5 2t-12.5 -1.5q-17 -3 -23.5 12t-3 33t11.5 25q3 3 14 14.5t16 16t14.5 11t19 8.5t20.5 1q7 -1 14 7.5t11 9.5q13 2 18 2t17.5 -2.5l17.5 -3.5q46 -3 69.5 -5.5t58 -13t63.5 -29.5q44 -28 63 -65q5 -10 6.5 -17.5 t0 -15t-3.5 -12.5t-7 -15l-8 -16q-10 -23 -45.5 -44t-46.5 -36q-4 -3 -11.5 -10.5t-11 -10t-11.5 -6.5t-18 -6q-23 -4 -57.5 -26.5t-53.5 -38.5t-26 -23q-7 -9 -22.5 -19.5t-32.5 -20.5t-21 -13q-6 -3 -13 -12.5t-9 -11.5q-11 -12 -58 -45t-53 -35q-24 -11 -45 -31 q-4 -5 -17.5 -20t-21.5 -26.5t-12 -21.5q11 0 44 -22.5t44 -26.5q188 -85 303 -98q68 -8 246 -43q9 -1 26.5 -5t26.5 -5.5t27 -3t27 1.5q12 3 15.5 2.5t12.5 -6.5q7 -3 13.5 2t9.5 6zM1010 16q25 1 34.5 -5.5t-1 -14t-33.5 -8.5q-13 0 -11.5 14t11.5 14z" />
<glyph unicode="&#x2000;" horiz-adv-x="821" />
<glyph unicode="&#x2001;" horiz-adv-x="1643" />
<glyph unicode="&#x2002;" horiz-adv-x="821" />
<glyph unicode="&#x2003;" horiz-adv-x="1643" />
<glyph unicode="&#x2004;" horiz-adv-x="547" />
<glyph unicode="&#x2005;" horiz-adv-x="410" />
<glyph unicode="&#x2006;" horiz-adv-x="273" />
<glyph unicode="&#x2007;" horiz-adv-x="273" />
<glyph unicode="&#x2008;" horiz-adv-x="205" />
<glyph unicode="&#x2009;" horiz-adv-x="328" />
<glyph unicode="&#x200a;" horiz-adv-x="91" />
<glyph unicode="&#x202f;" horiz-adv-x="328" />
<glyph unicode="&#x205f;" horiz-adv-x="410" />
<glyph unicode="&#x25fc;" horiz-adv-x="798" d="M0 799h799v-799h-799v799z" />
</font>
</defs>
</svg>
